<svg id="Layer_1" data-name="Layer 1" xmlns="http://www.w3.org/2000/svg" viewBox="0 0 225 42"><defs><style>.cls-1{fill:#fff200;}.cls-2{fill:#fff;}</style></defs><title>logo</title><rect class="cls-1" x="1.88" y="25.77" width="221.04" height="2.38"/><path class="cls-2" d="M161.16,37.54l.82.1a2,2,0,0,1-.72,1.12,2.44,2.44,0,0,1-3-.24,2.48,2.48,0,0,1-.6-1.78,2.59,2.59,0,0,1,.61-1.84,2.07,2.07,0,0,1,1.58-.66,2,2,0,0,1,1.54.64,2.54,2.54,0,0,1,.6,1.8s0,.12,0,.21h-3.5a1.8,1.8,0,0,0,.44,1.18,1.3,1.3,0,0,0,1,.41,1.22,1.22,0,0,0,.75-.23,1.52,1.52,0,0,0,.49-.73m-2.61-1.29h2.62a1.59,1.59,0,0,0-.3-.89,1.22,1.22,0,0,0-1-.46,1.26,1.26,0,0,0-.92.37,1.45,1.45,0,0,0-.41,1"/><path class="cls-2" d="M162.66,37.65l.79-.12a1.1,1.1,0,0,0,.37.72,1.29,1.29,0,0,0,.85.25,1.25,1.25,0,0,0,.81-.22.67.67,0,0,0,.27-.52.49.49,0,0,0-.23-.42,3.4,3.4,0,0,0-.81-.27,7.52,7.52,0,0,1-1.21-.38,1.16,1.16,0,0,1-.69-1.08,1.2,1.2,0,0,1,.14-.58,1.29,1.29,0,0,1,.39-.44,1.64,1.64,0,0,1,.51-.23,2.37,2.37,0,0,1,.69-.1,2.71,2.71,0,0,1,1,.16,1.31,1.31,0,0,1,.62.43,1.68,1.68,0,0,1,.27.73l-.78.11a.86.86,0,0,0-.31-.57,1.12,1.12,0,0,0-.72-.2,1.3,1.3,0,0,0-.78.18.53.53,0,0,0-.23.42.43.43,0,0,0,.1.28.7.7,0,0,0,.3.21l.7.2a9.47,9.47,0,0,1,1.18.37,1.18,1.18,0,0,1,.52.42,1.15,1.15,0,0,1,.19.68,1.33,1.33,0,0,1-.23.75,1.49,1.49,0,0,1-.67.54,2.44,2.44,0,0,1-1,.19,2.2,2.2,0,0,1-1.39-.38,1.78,1.78,0,0,1-.61-1.13"/><path class="cls-2" d="M169.24,38.34l.12.7a3,3,0,0,1-.6.07,1.35,1.35,0,0,1-.67-.14.77.77,0,0,1-.34-.36,2.83,2.83,0,0,1-.1-.94V35h-.58v-.62h.58V33.19l.79-.48v1.64h.8V35h-.8v2.75a1.42,1.42,0,0,0,0,.44.35.35,0,0,0,.14.16.54.54,0,0,0,.27.06l.35,0"/><path class="cls-2" d="M173.08,38.47a3,3,0,0,1-.85.53,2.47,2.47,0,0,1-.88.16,1.71,1.71,0,0,1-1.19-.38,1.25,1.25,0,0,1-.42-1,1.28,1.28,0,0,1,.16-.63,1.32,1.32,0,0,1,.41-.46,2,2,0,0,1,.57-.26,5.6,5.6,0,0,1,.71-.12,7.31,7.31,0,0,0,1.42-.27c0-.11,0-.18,0-.21a.88.88,0,0,0-.23-.69,1.33,1.33,0,0,0-.91-.27,1.4,1.4,0,0,0-.83.2,1.19,1.19,0,0,0-.39.7l-.78-.11a1.92,1.92,0,0,1,.35-.81,1.54,1.54,0,0,1,.7-.47,3.16,3.16,0,0,1,1.06-.17,2.81,2.81,0,0,1,1,.14,1.28,1.28,0,0,1,.55.36,1.24,1.24,0,0,1,.25.54,4.53,4.53,0,0,1,0,.73v1.06a11.25,11.25,0,0,0,.05,1.4,1.76,1.76,0,0,0,.2.56h-.83a1.66,1.66,0,0,1-.16-.58M173,36.69a5.91,5.91,0,0,1-1.3.3,3,3,0,0,0-.69.16.68.68,0,0,0-.31.26.7.7,0,0,0,.13.91,1,1,0,0,0,.7.21,1.65,1.65,0,0,0,.82-.2,1.25,1.25,0,0,0,.53-.55A1.94,1.94,0,0,0,173,37Z"/><path class="cls-2" d="M176.79,38.34l.12.7a3,3,0,0,1-.6.07,1.35,1.35,0,0,1-.67-.14.77.77,0,0,1-.34-.36,2.83,2.83,0,0,1-.1-.94V35h-.58v-.62h.58V33.19l.79-.48v1.64h.8V35H176v2.75a1.42,1.42,0,0,0,0,.44.35.35,0,0,0,.14.16.54.54,0,0,0,.27.06l.35,0"/><path class="cls-2" d="M180.78,37.54l.82.1a2,2,0,0,1-.72,1.12,2.44,2.44,0,0,1-3-.24,2.48,2.48,0,0,1-.6-1.78,2.59,2.59,0,0,1,.61-1.84,2.07,2.07,0,0,1,1.58-.66,2,2,0,0,1,1.54.64,2.54,2.54,0,0,1,.6,1.8s0,.12,0,.21h-3.5a1.8,1.8,0,0,0,.44,1.18,1.3,1.3,0,0,0,1,.41,1.22,1.22,0,0,0,.75-.23,1.52,1.52,0,0,0,.49-.73m-2.61-1.29h2.62a1.59,1.59,0,0,0-.3-.89,1.22,1.22,0,0,0-1-.46,1.26,1.26,0,0,0-.92.37,1.45,1.45,0,0,0-.41,1"/><path class="cls-2" d="M188.18,38.47a3,3,0,0,1-.85.53,2.47,2.47,0,0,1-.88.16,1.71,1.71,0,0,1-1.19-.38,1.25,1.25,0,0,1-.42-1,1.28,1.28,0,0,1,.16-.63,1.32,1.32,0,0,1,.41-.46,2,2,0,0,1,.57-.26,5.6,5.6,0,0,1,.71-.12,7.31,7.31,0,0,0,1.42-.27c0-.11,0-.18,0-.21a.88.88,0,0,0-.23-.69,1.33,1.33,0,0,0-.91-.27,1.4,1.4,0,0,0-.83.2,1.19,1.19,0,0,0-.39.7l-.78-.11a1.92,1.92,0,0,1,.35-.81,1.54,1.54,0,0,1,.7-.47,3.16,3.16,0,0,1,1.06-.17,2.81,2.81,0,0,1,1,.14,1.28,1.28,0,0,1,.55.36,1.24,1.24,0,0,1,.25.54,4.53,4.53,0,0,1,0,.73v1.06a11.25,11.25,0,0,0,.05,1.4,1.76,1.76,0,0,0,.2.56h-.83a1.66,1.66,0,0,1-.16-.58m-.07-1.78a5.91,5.91,0,0,1-1.3.3,3,3,0,0,0-.69.16.68.68,0,0,0-.31.26.7.7,0,0,0,.13.91,1,1,0,0,0,.7.21,1.65,1.65,0,0,0,.82-.2,1.25,1.25,0,0,0,.53-.55,1.94,1.94,0,0,0,.13-.8Z"/><path class="cls-2" d="M190,39.44l.77.12a.74.74,0,0,0,.27.52,1.33,1.33,0,0,0,.81.22,1.42,1.42,0,0,0,.85-.22,1.1,1.1,0,0,0,.41-.62,5.1,5.1,0,0,0,.06-1,1.64,1.64,0,0,1-1.3.61,1.77,1.77,0,0,1-1.5-.7,2.69,2.69,0,0,1-.53-1.67,3.12,3.12,0,0,1,.24-1.24,1.94,1.94,0,0,1,.7-.88,1.9,1.9,0,0,1,1.09-.31,1.68,1.68,0,0,1,1.37.67v-.57H194v4.06a3.84,3.84,0,0,1-.22,1.55,1.64,1.64,0,0,1-.71.72,2.45,2.45,0,0,1-1.19.26,2.24,2.24,0,0,1-1.36-.38,1.28,1.28,0,0,1-.5-1.14m.66-2.82A2,2,0,0,0,191,38a1.21,1.21,0,0,0,1.84,0,2,2,0,0,0,.37-1.32,1.92,1.92,0,0,0-.38-1.3,1.18,1.18,0,0,0-.92-.44,1.15,1.15,0,0,0-.9.43,1.91,1.91,0,0,0-.37,1.28"/><path class="cls-2" d="M198.4,37.54l.82.1a2,2,0,0,1-.72,1.12,2.44,2.44,0,0,1-3-.24,2.48,2.48,0,0,1-.6-1.78,2.59,2.59,0,0,1,.61-1.84,2.07,2.07,0,0,1,1.58-.66,2,2,0,0,1,1.54.64,2.54,2.54,0,0,1,.6,1.8s0,.12,0,.21h-3.5a1.8,1.8,0,0,0,.44,1.18,1.3,1.3,0,0,0,1,.41,1.22,1.22,0,0,0,.75-.23,1.52,1.52,0,0,0,.49-.73m-2.61-1.29h2.62a1.59,1.59,0,0,0-.3-.89,1.22,1.22,0,0,0-1-.46,1.26,1.26,0,0,0-.92.37,1.45,1.45,0,0,0-.41,1"/><path class="cls-2" d="M200.22,39V34.36h.72V35a1.69,1.69,0,0,1,1.49-.77,2,2,0,0,1,.78.15,1.21,1.21,0,0,1,.53.4,1.52,1.52,0,0,1,.25.59,4.55,4.55,0,0,1,0,.77V39h-.8V36.19a2.13,2.13,0,0,0-.09-.73.76.76,0,0,0-.33-.38,1,1,0,0,0-.55-.14,1.29,1.29,0,0,0-.88.32,1.59,1.59,0,0,0-.37,1.22V39Z"/><path class="cls-2" d="M207,38.34l.12.7a3,3,0,0,1-.6.07,1.35,1.35,0,0,1-.67-.14.77.77,0,0,1-.34-.36,2.83,2.83,0,0,1-.1-.94V35h-.58v-.62h.58V33.19l.79-.48v1.64h.8V35h-.8v2.75a1.42,1.42,0,0,0,0,.44.35.35,0,0,0,.14.16.54.54,0,0,0,.27.06l.35,0"/><path class="cls-2" d="M207.45,37.65l.79-.12a1.1,1.1,0,0,0,.37.72,1.29,1.29,0,0,0,.85.25,1.25,1.25,0,0,0,.81-.22.67.67,0,0,0,.27-.52.49.49,0,0,0-.23-.42,3.4,3.4,0,0,0-.81-.27,7.52,7.52,0,0,1-1.21-.38,1.16,1.16,0,0,1-.69-1.08,1.2,1.2,0,0,1,.14-.58,1.29,1.29,0,0,1,.39-.44,1.64,1.64,0,0,1,.51-.23,2.37,2.37,0,0,1,.69-.1,2.71,2.71,0,0,1,1,.16,1.31,1.31,0,0,1,.62.43,1.68,1.68,0,0,1,.27.73l-.78.11a.86.86,0,0,0-.31-.57,1.12,1.12,0,0,0-.72-.2,1.3,1.3,0,0,0-.78.18.53.53,0,0,0-.23.42.43.43,0,0,0,.1.28.7.7,0,0,0,.3.21l.7.2a9.47,9.47,0,0,1,1.18.37,1.18,1.18,0,0,1,.52.42,1.15,1.15,0,0,1,.19.68,1.33,1.33,0,0,1-.23.75,1.49,1.49,0,0,1-.67.54,2.44,2.44,0,0,1-1,.19,2.2,2.2,0,0,1-1.39-.38,1.78,1.78,0,0,1-.61-1.13"/><rect class="cls-2" x="214.8" y="32.57" width="0.8" height="6.48"/><path class="cls-2" d="M218.56,38.34l.12.7a3,3,0,0,1-.6.07,1.35,1.35,0,0,1-.67-.14.77.77,0,0,1-.34-.36,2.83,2.83,0,0,1-.1-.94V35h-.58v-.62H217V33.19l.79-.48v1.64h.8V35h-.8v2.75a1.42,1.42,0,0,0,0,.44.35.35,0,0,0,.14.16.54.54,0,0,0,.27.06l.35,0"/><path class="cls-2" d="M222.39,39v-.59a1.46,1.46,0,0,1-1.31.7,1.85,1.85,0,0,1-1-.31,2,2,0,0,1-.73-.86,3,3,0,0,1-.26-1.28,3.36,3.36,0,0,1,.23-1.28,1.84,1.84,0,0,1,.7-.88,1.88,1.88,0,0,1,1-.31,1.57,1.57,0,0,1,1.3.65V32.57h.79V39Zm-2.52-2.34a2,2,0,0,0,.38,1.35,1.15,1.15,0,0,0,.9.45,1.13,1.13,0,0,0,.89-.43,2,2,0,0,0,.36-1.3,2.2,2.2,0,0,0-.37-1.41,1.14,1.14,0,0,0-.91-.45,1.1,1.1,0,0,0-.89.43,2.13,2.13,0,0,0-.36,1.37"/><path class="cls-2" d="M130.78,22.56V16.06h.73v.61a1.77,1.77,0,0,1,.58-.54,1.58,1.58,0,0,1,.78-.18,1.85,1.85,0,0,1,1.06.31,1.9,1.9,0,0,1,.69.87,3.18,3.18,0,0,1,.23,1.23,3.13,3.13,0,0,1-.26,1.3,2,2,0,0,1-.75.88,1.93,1.93,0,0,1-1,.31,1.5,1.5,0,0,1-.71-.17,1.68,1.68,0,0,1-.52-.42v2.29Zm.72-4.12a2,2,0,0,0,.37,1.34,1.13,1.13,0,0,0,.89.43,1.15,1.15,0,0,0,.91-.45,2.13,2.13,0,0,0,.38-1.39,2.07,2.07,0,0,0-.37-1.34,1.11,1.11,0,0,0-.88-.45,1.14,1.14,0,0,0-.9.48,2.12,2.12,0,0,0-.39,1.38"/><path class="cls-2" d="M135.81,20.76V16.06h.72v.71a1.94,1.94,0,0,1,.51-.66.89.89,0,0,1,.51-.16,1.55,1.55,0,0,1,.82.26l-.27.74a1.14,1.14,0,0,0-.58-.17.75.75,0,0,0-.47.16.85.85,0,0,0-.3.44,3.1,3.1,0,0,0-.13.93v2.46Z"/><path class="cls-2" d="M138.53,18.41a2.42,2.42,0,0,1,.73-1.93,2.18,2.18,0,0,1,1.48-.52,2.1,2.1,0,0,1,1.58.63,2.41,2.41,0,0,1,.61,1.75,3.11,3.11,0,0,1-.27,1.43,1.93,1.93,0,0,1-.79.81,2.31,2.31,0,0,1-1.13.29,2.12,2.12,0,0,1-1.59-.63,2.53,2.53,0,0,1-.61-1.82m.82,0a2,2,0,0,0,.39,1.35,1.31,1.31,0,0,0,2,0,2,2,0,0,0,.39-1.37,1.94,1.94,0,0,0-.39-1.32,1.31,1.31,0,0,0-2,0,2,2,0,0,0-.39,1.35"/><path class="cls-2" d="M143.86,22.56V16.06h.73v.61a1.77,1.77,0,0,1,.58-.54,1.58,1.58,0,0,1,.78-.18,1.85,1.85,0,0,1,1.06.31,1.9,1.9,0,0,1,.69.87,3.18,3.18,0,0,1,.23,1.23,3.13,3.13,0,0,1-.26,1.3,2,2,0,0,1-.75.88,1.93,1.93,0,0,1-1,.31,1.5,1.5,0,0,1-.71-.17,1.68,1.68,0,0,1-.52-.42v2.29Zm.72-4.12a2,2,0,0,0,.37,1.34,1.13,1.13,0,0,0,.89.43,1.15,1.15,0,0,0,.91-.45,2.13,2.13,0,0,0,.38-1.39,2.07,2.07,0,0,0-.37-1.34,1.11,1.11,0,0,0-.88-.45,1.14,1.14,0,0,0-.9.48,2.12,2.12,0,0,0-.39,1.38"/><path class="cls-2" d="M152.11,19.24l.82.1a2,2,0,0,1-.72,1.12,2.44,2.44,0,0,1-3-.24,2.48,2.48,0,0,1-.6-1.78,2.59,2.59,0,0,1,.61-1.84,2.07,2.07,0,0,1,1.58-.66,2,2,0,0,1,1.54.64,2.54,2.54,0,0,1,.6,1.8s0,.12,0,.21h-3.5a1.8,1.8,0,0,0,.44,1.18,1.3,1.3,0,0,0,1,.41,1.22,1.22,0,0,0,.75-.23,1.52,1.52,0,0,0,.49-.73M149.5,18h2.62a1.59,1.59,0,0,0-.3-.89,1.22,1.22,0,0,0-1-.46,1.26,1.26,0,0,0-.92.37,1.45,1.45,0,0,0-.41,1"/><path class="cls-2" d="M153.92,20.76V16.06h.72v.71a1.94,1.94,0,0,1,.51-.66.89.89,0,0,1,.51-.16,1.55,1.55,0,0,1,.82.26l-.27.74a1.14,1.14,0,0,0-.58-.17.75.75,0,0,0-.47.16.85.85,0,0,0-.3.44,3.1,3.1,0,0,0-.13.93v2.46Z"/><path class="cls-2" d="M158.68,20l.12.7a3,3,0,0,1-.6.07,1.35,1.35,0,0,1-.67-.14.77.77,0,0,1-.34-.36,2.83,2.83,0,0,1-.1-.94v-2.7h-.58v-.62h.58V14.9l.79-.48v1.64h.8v.62h-.8v2.75a1.42,1.42,0,0,0,0,.44.35.35,0,0,0,.14.16.54.54,0,0,0,.27.06l.35,0"/><path class="cls-2" d="M159.43,22.56l-.09-.75a1.8,1.8,0,0,0,.45.07.88.88,0,0,0,.42-.09.73.73,0,0,0,.26-.25,3.94,3.94,0,0,0,.24-.59l.07-.19L159,16.06h.86l1,2.72q.19.52.34,1.09a10.44,10.44,0,0,1,.33-1.07l1-2.74h.8l-1.79,4.77a9.14,9.14,0,0,1-.45,1.06,1.58,1.58,0,0,1-.49.58,1.16,1.16,0,0,1-.65.18,1.6,1.6,0,0,1-.51-.1"/><path class="cls-2" d="M169.57,19l.78.1a2,2,0,0,1-.66,1.27,1.91,1.91,0,0,1-1.3.46,2,2,0,0,1-1.55-.63,2.56,2.56,0,0,1-.59-1.81,3.26,3.26,0,0,1,.25-1.33,1.75,1.75,0,0,1,.77-.86A2.27,2.27,0,0,1,168.4,16a2,2,0,0,1,1.25.39,1.78,1.78,0,0,1,.62,1.1l-.77.12a1.29,1.29,0,0,0-.39-.71,1,1,0,0,0-.68-.24,1.23,1.23,0,0,0-1,.43,2,2,0,0,0-.38,1.36,2.11,2.11,0,0,0,.36,1.37,1.18,1.18,0,0,0,.95.43,1.11,1.11,0,0,0,.78-.29,1.43,1.43,0,0,0,.4-.88"/><path class="cls-2" d="M170.73,18.41a2.42,2.42,0,0,1,.73-1.93,2.18,2.18,0,0,1,1.48-.52,2.1,2.1,0,0,1,1.58.63,2.41,2.41,0,0,1,.61,1.75,3.11,3.11,0,0,1-.27,1.43,1.93,1.93,0,0,1-.79.81,2.31,2.31,0,0,1-1.13.29,2.12,2.12,0,0,1-1.59-.63,2.53,2.53,0,0,1-.61-1.82m.82,0a2,2,0,0,0,.39,1.35,1.31,1.31,0,0,0,2,0,2,2,0,0,0,.39-1.37,1.94,1.94,0,0,0-.39-1.32,1.31,1.31,0,0,0-2,0,2,2,0,0,0-.39,1.35"/><path class="cls-2" d="M176.07,20.76V16.06h.72v.67a1.69,1.69,0,0,1,1.49-.77,2,2,0,0,1,.78.15,1.21,1.21,0,0,1,.53.4,1.52,1.52,0,0,1,.25.59,4.55,4.55,0,0,1,0,.77v2.89h-.8V17.9a2.13,2.13,0,0,0-.09-.73.76.76,0,0,0-.33-.38,1,1,0,0,0-.55-.14,1.29,1.29,0,0,0-.88.32,1.59,1.59,0,0,0-.37,1.22v2.56Z"/><path class="cls-2" d="M180.78,19.35l.79-.12a1.1,1.1,0,0,0,.37.72,1.29,1.29,0,0,0,.85.25,1.25,1.25,0,0,0,.81-.22.67.67,0,0,0,.27-.52.49.49,0,0,0-.23-.42,3.4,3.4,0,0,0-.81-.27,7.52,7.52,0,0,1-1.21-.38,1.16,1.16,0,0,1-.69-1.08,1.2,1.2,0,0,1,.14-.58,1.29,1.29,0,0,1,.39-.44,1.64,1.64,0,0,1,.51-.23,2.37,2.37,0,0,1,.69-.1,2.71,2.71,0,0,1,1,.16,1.31,1.31,0,0,1,.62.43,1.68,1.68,0,0,1,.27.73l-.78.11a.86.86,0,0,0-.31-.57,1.12,1.12,0,0,0-.72-.2,1.3,1.3,0,0,0-.78.18.53.53,0,0,0-.23.42.43.43,0,0,0,.1.28.7.7,0,0,0,.3.21l.7.2a9.47,9.47,0,0,1,1.18.37,1.18,1.18,0,0,1,.52.42,1.15,1.15,0,0,1,.19.68,1.33,1.33,0,0,1-.23.75,1.49,1.49,0,0,1-.67.54,2.44,2.44,0,0,1-1,.19,2.2,2.2,0,0,1-1.39-.38,1.78,1.78,0,0,1-.61-1.13"/><path class="cls-2" d="M188.7,20.76v-.69a1.72,1.72,0,0,1-1.49.8,1.89,1.89,0,0,1-.78-.16,1.29,1.29,0,0,1-.54-.4,1.53,1.53,0,0,1-.24-.59,4,4,0,0,1,0-.74V16.06h.8v2.6a4.61,4.61,0,0,0,0,.84.82.82,0,0,0,.32.49,1,1,0,0,0,.6.18A1.31,1.31,0,0,0,188,20a1,1,0,0,0,.44-.5,2.51,2.51,0,0,0,.13-.92V16.06h.8v4.69Z"/><rect class="cls-2" x="190.64" y="14.28" width="0.8" height="6.48"/><path class="cls-2" d="M194.41,20l.12.7a3,3,0,0,1-.6.07,1.35,1.35,0,0,1-.67-.14.77.77,0,0,1-.34-.36,2.83,2.83,0,0,1-.1-.94v-2.7h-.58v-.62h.58V14.9l.79-.48v1.64h.8v.62h-.8v2.75a1.42,1.42,0,0,0,0,.44.35.35,0,0,0,.14.16.54.54,0,0,0,.27.06l.35,0"/><path class="cls-2" d="M198.25,20.18a3,3,0,0,1-.85.53,2.47,2.47,0,0,1-.88.16,1.71,1.71,0,0,1-1.19-.38,1.25,1.25,0,0,1-.42-1,1.28,1.28,0,0,1,.16-.63,1.32,1.32,0,0,1,.41-.46,2,2,0,0,1,.57-.26,5.6,5.6,0,0,1,.71-.12,7.31,7.31,0,0,0,1.42-.27c0-.11,0-.18,0-.21a.88.88,0,0,0-.23-.69,1.33,1.33,0,0,0-.91-.27,1.4,1.4,0,0,0-.83.2,1.19,1.19,0,0,0-.39.7l-.78-.11a1.92,1.92,0,0,1,.35-.81,1.54,1.54,0,0,1,.7-.47,3.16,3.16,0,0,1,1.06-.17,2.81,2.81,0,0,1,1,.14,1.28,1.28,0,0,1,.55.36A1.24,1.24,0,0,1,199,17a4.53,4.53,0,0,1,0,.73v1.06a11.25,11.25,0,0,0,.05,1.4,1.76,1.76,0,0,0,.2.56h-.83a1.66,1.66,0,0,1-.16-.58m-.07-1.78a5.91,5.91,0,0,1-1.3.3,3,3,0,0,0-.69.16.68.68,0,0,0-.31.26A.7.7,0,0,0,196,20a1,1,0,0,0,.7.21,1.65,1.65,0,0,0,.82-.2,1.25,1.25,0,0,0,.53-.55,1.94,1.94,0,0,0,.13-.8Z"/><path class="cls-2" d="M200.22,20.76V16.06h.72v.67a1.69,1.69,0,0,1,1.49-.77,2,2,0,0,1,.78.15,1.21,1.21,0,0,1,.53.4,1.52,1.52,0,0,1,.25.59,4.55,4.55,0,0,1,0,.77v2.89h-.8V17.9a2.13,2.13,0,0,0-.09-.73.76.76,0,0,0-.33-.38,1,1,0,0,0-.55-.14,1.29,1.29,0,0,0-.88.32,1.59,1.59,0,0,0-.37,1.22v2.56Z"/><path class="cls-2" d="M207,20l.12.7a3,3,0,0,1-.6.07,1.35,1.35,0,0,1-.67-.14.77.77,0,0,1-.34-.36,2.83,2.83,0,0,1-.1-.94v-2.7h-.58v-.62h.58V14.9l.79-.48v1.64h.8v.62h-.8v2.75a1.42,1.42,0,0,0,0,.44.35.35,0,0,0,.14.16.54.54,0,0,0,.27.06l.35,0"/><path class="cls-2" d="M207.45,19.35l.79-.12a1.1,1.1,0,0,0,.37.72,1.29,1.29,0,0,0,.85.25,1.25,1.25,0,0,0,.81-.22.67.67,0,0,0,.27-.52.49.49,0,0,0-.23-.42,3.4,3.4,0,0,0-.81-.27,7.52,7.52,0,0,1-1.21-.38,1.16,1.16,0,0,1-.69-1.08,1.2,1.2,0,0,1,.14-.58,1.29,1.29,0,0,1,.39-.44,1.64,1.64,0,0,1,.51-.23,2.37,2.37,0,0,1,.69-.1,2.71,2.71,0,0,1,1,.16,1.31,1.31,0,0,1,.62.43,1.68,1.68,0,0,1,.27.73l-.78.11a.86.86,0,0,0-.31-.57,1.12,1.12,0,0,0-.72-.2,1.3,1.3,0,0,0-.78.18.53.53,0,0,0-.23.42.43.43,0,0,0,.1.28.7.7,0,0,0,.3.21l.7.2a9.47,9.47,0,0,1,1.18.37,1.18,1.18,0,0,1,.52.42,1.15,1.15,0,0,1,.19.68,1.33,1.33,0,0,1-.23.75,1.49,1.49,0,0,1-.67.54,2.44,2.44,0,0,1-1,.19,2.2,2.2,0,0,1-1.39-.38,1.78,1.78,0,0,1-.61-1.13"/><rect class="cls-2" x="214.8" y="14.28" width="0.8" height="6.48"/><path class="cls-2" d="M218.56,20l.12.7a3,3,0,0,1-.6.07,1.35,1.35,0,0,1-.67-.14.77.77,0,0,1-.34-.36,2.83,2.83,0,0,1-.1-.94v-2.7h-.58v-.62H217V14.9l.79-.48v1.64h.8v.62h-.8v2.75a1.42,1.42,0,0,0,0,.44.35.35,0,0,0,.14.16.54.54,0,0,0,.27.06l.35,0"/><path class="cls-2" d="M222.39,20.76v-.59a1.46,1.46,0,0,1-1.31.7,1.85,1.85,0,0,1-1-.31,2,2,0,0,1-.73-.86,3,3,0,0,1-.26-1.28,3.36,3.36,0,0,1,.23-1.28,1.84,1.84,0,0,1,.7-.88,1.88,1.88,0,0,1,1-.31,1.57,1.57,0,0,1,1.3.65V14.28h.79v6.48Zm-2.52-2.34a2,2,0,0,0,.38,1.35,1.15,1.15,0,0,0,.9.45,1.13,1.13,0,0,0,.89-.43,2,2,0,0,0,.36-1.3,2.2,2.2,0,0,0-.37-1.41,1.14,1.14,0,0,0-.91-.45,1.1,1.1,0,0,0-.89.43,2.13,2.13,0,0,0-.36,1.37"/><path class="cls-2" d="M19.52,1.17h2.4V3.93h-2.4Zm0,5.4h2.4V20.76h-2.4Z"/><path class="cls-2" d="M25.58,20.76V6.57h2.16v2a5.1,5.1,0,0,1,4.52-2.34,5.92,5.92,0,0,1,2.36.46,3.71,3.71,0,0,1,1.61,1.21A4.64,4.64,0,0,1,37,9.69,13.85,13.85,0,0,1,37.11,12v8.72H34.71V12.12a6.45,6.45,0,0,0-.28-2.2,2.31,2.31,0,0,0-1-1.16,3.16,3.16,0,0,0-1.68-.43,3.9,3.9,0,0,0-2.65,1Q28,10.28,28,13v7.75Z"/><path class="cls-2" d="M44.74,20.76,39.34,6.57h2.54l3,8.5q.5,1.38.91,2.86.32-1.12.9-2.7l3.15-8.66h2.47L47,20.76Z"/><path class="cls-2" d="M64.2,16.19l2.49.31a6.06,6.06,0,0,1-2.18,3.38,7.38,7.38,0,0,1-9-.72,7.49,7.49,0,0,1-1.82-5.38,7.84,7.84,0,0,1,1.84-5.56,6.24,6.24,0,0,1,4.78-2A6.07,6.07,0,0,1,65,8.18a7.7,7.7,0,0,1,1.8,5.45c0,.14,0,.36,0,.64H56.17a5.44,5.44,0,0,0,1.32,3.58,3.93,3.93,0,0,0,3,1.24,3.68,3.68,0,0,0,2.26-.69,4.62,4.62,0,0,0,1.48-2.22M56.3,12.3h7.92a4.81,4.81,0,0,0-.91-2.69,3.69,3.69,0,0,0-3-1.39,3.82,3.82,0,0,0-2.79,1.11,4.39,4.39,0,0,0-1.25,3"/><path class="cls-2" d="M68.74,16.52l2.38-.37a3.32,3.32,0,0,0,1.12,2.19,3.89,3.89,0,0,0,2.56.76,3.76,3.76,0,0,0,2.46-.67,2,2,0,0,0,.8-1.58,1.46,1.46,0,0,0-.71-1.28,10.46,10.46,0,0,0-2.46-.81,22.38,22.38,0,0,1-3.67-1.16,3.5,3.5,0,0,1-2.08-3.25,3.66,3.66,0,0,1,.43-1.76,3.91,3.91,0,0,1,1.18-1.34,5,5,0,0,1,1.53-.7,7.24,7.24,0,0,1,2.08-.29,8.2,8.2,0,0,1,2.93.48A4,4,0,0,1,79.16,8a5.09,5.09,0,0,1,.83,2.2l-2.35.32a2.57,2.57,0,0,0-.93-1.71,3.4,3.4,0,0,0-2.17-.61,3.93,3.93,0,0,0-2.37.55,1.59,1.59,0,0,0-.71,1.28,1.33,1.33,0,0,0,.29.84,2.13,2.13,0,0,0,.92.64q.36.13,2.13.62a29.48,29.48,0,0,1,3.56,1.11,3.61,3.61,0,0,1,1.58,1.26,3.52,3.52,0,0,1,.57,2.06,4,4,0,0,1-.7,2.26,4.52,4.52,0,0,1-2,1.64,7.37,7.37,0,0,1-3,.58,6.66,6.66,0,0,1-4.22-1.15,5.34,5.34,0,0,1-1.85-3.41"/><path class="cls-2" d="M88.63,18.6,89,20.73a8.92,8.92,0,0,1-1.82.21,4.12,4.12,0,0,1-2-.41,2.31,2.31,0,0,1-1-1.09,8.61,8.61,0,0,1-.29-2.84V8.44H82.06V6.57h1.76V3.05l2.39-1.44v5h2.42V8.44H86.22v8.3a4.2,4.2,0,0,0,.13,1.32,1,1,0,0,0,.41.47,1.6,1.6,0,0,0,.82.17,7.68,7.68,0,0,0,1.06-.09"/><path class="cls-2" d="M91,1.17h2.4V3.93H91Zm0,5.4h2.4V20.76H91Z"/><path class="cls-2" d="M106.32,19a9,9,0,0,1-2.57,1.6,7.44,7.44,0,0,1-2.65.47,5.16,5.16,0,0,1-3.6-1.14A3.77,3.77,0,0,1,96.25,17a3.87,3.87,0,0,1,.48-1.9A3.93,3.93,0,0,1,98,13.73a5.83,5.83,0,0,1,1.73-.79,16.94,16.94,0,0,1,2.14-.36,22,22,0,0,0,4.29-.83c0-.33,0-.54,0-.63a2.66,2.66,0,0,0-.68-2.07,4,4,0,0,0-2.74-.82,4.25,4.25,0,0,0-2.51.6A3.63,3.63,0,0,0,99,10.93l-2.35-.32a5.83,5.83,0,0,1,1.05-2.44,4.63,4.63,0,0,1,2.13-1.43,9.48,9.48,0,0,1,3.22-.5,8.55,8.55,0,0,1,3,.43,3.9,3.9,0,0,1,1.67,1.08,3.79,3.79,0,0,1,.75,1.64,13.54,13.54,0,0,1,.12,2.22v3.21a33.88,33.88,0,0,0,.15,4.24,5.32,5.32,0,0,0,.61,1.7h-2.51a5.08,5.08,0,0,1-.48-1.75m-.2-5.37a17.72,17.72,0,0,1-3.93.91,9.05,9.05,0,0,0-2.1.48,2.09,2.09,0,0,0-.95.78,2.13,2.13,0,0,0,.39,2.75,3.13,3.13,0,0,0,2.13.64,5,5,0,0,0,2.47-.61,3.74,3.74,0,0,0,1.59-1.66,5.81,5.81,0,0,0,.39-2.4Z"/></svg>