<svg width="30" height="31" viewBox="0 0 30 31" fill="none" xmlns="http://www.w3.org/2000/svg">
<g id="facebook (8)" clip-path="url(#clip0_475_2055)">
<g id="Layer 2">
<g id="01.facebook">
<path id="background" d="M15 30.6968C23.2843 30.6968 30 23.981 30 15.6968C30 7.41251 23.2843 0.696777 15 0.696777C6.71573 0.696777 0 7.41251 0 15.6968C0 23.981 6.71573 30.6968 15 30.6968Z" fill="#3A559F"/>
<path id="icon" d="M19.7521 13.9206L19.4504 16.5337C19.4379 16.6529 19.382 16.7634 19.2934 16.8442C19.2048 16.9249 19.0896 16.9703 18.9698 16.9718H16.2425L16.2288 24.7189C16.2298 24.8107 16.1945 24.8992 16.1307 24.9652C16.0669 25.0313 15.9797 25.0695 15.8879 25.0718H13.1249C13.0789 25.0718 13.0335 25.0626 12.9912 25.0446C12.9489 25.0266 12.9107 25.0003 12.8789 24.9672C12.847 24.934 12.8222 24.8948 12.8059 24.8519C12.7896 24.8089 12.7821 24.7631 12.784 24.7172V16.9718H10.7385C10.6743 16.9711 10.6108 16.9578 10.5517 16.9326C10.4926 16.9074 10.439 16.8708 10.3941 16.8249C10.3491 16.779 10.3137 16.7247 10.2897 16.6651C10.2657 16.6055 10.2537 16.5417 10.2544 16.4775L10.2442 13.8644C10.2433 13.7999 10.2551 13.7359 10.2789 13.676C10.3028 13.6161 10.3382 13.5615 10.3831 13.5153C10.4281 13.469 10.4817 13.4321 10.5409 13.4066C10.6001 13.3811 10.6638 13.3676 10.7283 13.3667H12.784V10.8439C12.784 7.91553 14.5226 6.32178 17.0726 6.32178H19.1624C19.227 6.32244 19.2908 6.33586 19.3502 6.36126C19.4097 6.38665 19.4635 6.42353 19.5086 6.46977C19.5538 6.51601 19.5893 6.57071 19.6133 6.63073C19.6372 6.69074 19.6491 6.75489 19.6482 6.8195V9.01837C19.6491 9.08298 19.6372 9.14713 19.6133 9.20715C19.5893 9.26716 19.5538 9.32186 19.5086 9.3681C19.4635 9.41434 19.4097 9.45122 19.3502 9.47662C19.2908 9.50201 19.227 9.51543 19.1624 9.5161H17.8806C16.4948 9.5161 16.2254 10.1979 16.2254 11.1831V13.3667H19.2715C19.3407 13.3675 19.409 13.3831 19.4719 13.4122C19.5347 13.4414 19.5907 13.4835 19.6361 13.5358C19.6815 13.5881 19.7153 13.6495 19.7353 13.7158C19.7553 13.7821 19.761 13.8519 19.7521 13.9206Z" fill="white"/>
</g>
</g>
</g>
<defs>
<clipPath id="clip0_475_2055">
<rect width="30" height="30" fill="white" transform="translate(0 0.696777)"/>
</clipPath>
</defs>
</svg>
