<svg width="30" height="31" viewBox="0 0 30 31" fill="none" xmlns="http://www.w3.org/2000/svg">
<g id="google (4)" clip-path="url(#clip0_475_2060)">
<g id="Group">
<path id="Vector" d="M7.03125 15.6968C7.03125 14.2104 7.44076 12.818 8.15221 11.6258V6.56873H3.0951C1.08797 9.17544 0 12.3523 0 15.6968C0 19.0412 1.08797 22.2181 3.0951 24.8248H8.15221V19.7677C7.44076 18.5755 7.03125 17.1831 7.03125 15.6968Z" fill="#FBBD00"/>
<path id="Vector_2" d="M15 23.6655L11.4844 27.1811L15 30.6967C18.3445 30.6967 21.5213 29.6088 24.128 27.6016V22.5499H19.0763C17.8737 23.264 16.4754 23.6655 15 23.6655Z" fill="#0F9D58"/>
<path id="Vector_3" d="M8.15184 19.7677L3.09473 24.8248C3.49211 25.3409 3.92482 25.8351 4.39305 26.3034C7.22617 29.1365 10.993 30.6968 14.9996 30.6968V23.6655C12.092 23.6655 9.54355 22.0999 8.15184 19.7677Z" fill="#31AA52"/>
<path id="Vector_4" d="M30 15.6968C30 14.7842 29.9174 13.8699 29.7544 12.9794L29.6225 12.2588H15V19.29H22.1163C21.4253 20.6647 20.3627 21.7863 19.0762 22.5501L24.128 27.6018C24.6441 27.2044 25.1383 26.7717 25.6066 26.3035C28.4397 23.4703 30 19.7035 30 15.6968Z" fill="#3C79E6"/>
<path id="Vector_5" d="M20.6348 10.062L21.2562 10.6834L26.2281 5.71164L25.6066 5.0902C22.7735 2.25707 19.0067 0.696777 15 0.696777L11.4844 4.2124L15 7.72803C17.1285 7.72803 19.1296 8.55689 20.6348 10.062Z" fill="#CF2D48"/>
<path id="Vector_6" d="M14.9997 7.72803V0.696777C10.993 0.696777 7.22623 2.25707 4.39305 5.09014C3.92482 5.55836 3.49211 6.0526 3.09473 6.56875L8.15184 11.6259C9.54361 9.29365 12.092 7.72803 14.9997 7.72803Z" fill="#EB4132"/>
</g>
</g>
<defs>
<clipPath id="clip0_475_2060">
<rect width="30" height="30" fill="white" transform="translate(0 0.696777)"/>
</clipPath>
</defs>
</svg>
