<svg width="30" height="31" viewBox="0 0 30 31" fill="none" xmlns="http://www.w3.org/2000/svg">
<g id="instagram (9)" clip-path="url(#clip0_475_2068)">
<g id="Layer 2">
<g id="Circle">
<g id="03.Instagram">
<path id="Background" d="M30 15.6968C30 7.41251 23.2843 0.696777 15 0.696777C6.71573 0.696777 0 7.41251 0 15.6968C0 23.981 6.71573 30.6968 15 30.6968C23.2843 30.6968 30 23.981 30 15.6968Z" fill="url(#paint0_linear_475_2068)"/>
<g id="Group">
<path id="Shade" opacity="0.1" d="M26.2893 5.82841C24.1025 9.84289 21.0097 13.9837 17.1452 17.8481C13.2808 21.7126 9.13996 24.7995 5.13141 26.9863C4.8801 26.7679 4.63602 26.5403 4.39917 26.3034C2.96758 24.9196 1.8258 23.2646 1.04043 21.435C0.255058 19.6054 -0.158195 17.6377 -0.175232 15.6467C-0.192269 13.6557 0.18725 11.6812 0.941197 9.83837C1.69514 7.99556 2.80843 6.32129 4.21614 4.91319C5.62384 3.50509 7.2978 2.39134 9.1404 1.63687C10.983 0.882414 12.9574 0.502343 14.9484 0.518824C16.9394 0.535306 18.9072 0.948009 20.7371 1.73287C22.5669 2.51773 24.2222 3.65904 25.6064 5.09026C25.8433 5.3271 26.0709 5.57315 26.2893 5.82841Z" fill="white"/>
<g id="Icon">
<path id="Vector" d="M18.5528 7.80212H11.4476C10.296 7.80212 9.19154 8.25959 8.37724 9.0739C7.56294 9.8882 7.10547 10.9926 7.10547 12.1442V19.2495C7.10547 20.4011 7.56294 21.5055 8.37724 22.3198C9.19154 23.1341 10.296 23.5916 11.4476 23.5916H18.5528C19.7044 23.5916 20.8089 23.1341 21.6232 22.3198C22.4375 21.5055 22.8949 20.4011 22.8949 19.2495V12.1442C22.8949 10.9926 22.4375 9.8882 21.6232 9.0739C20.8089 8.25959 19.7044 7.80212 18.5528 7.80212ZM21.5134 18.6258C21.5134 19.5764 21.1357 20.4881 20.4636 21.1602C19.7914 21.8324 18.8797 22.21 17.9292 22.21H12.0713C11.1207 22.21 10.209 21.8324 9.53684 21.1602C8.86467 20.4881 8.48705 19.5764 8.48705 18.6258V12.7679C8.48705 11.8173 8.86467 10.9057 9.53684 10.2335C10.209 9.56132 11.1207 9.1837 12.0713 9.1837H17.9292C18.8797 9.1837 19.7914 9.56132 20.4636 10.2335C21.1357 10.9057 21.5134 11.8173 21.5134 12.7679V18.6258Z" fill="white"/>
<path id="Vector_2" d="M17.8796 12.8469L17.8421 12.8094L17.8105 12.7778C17.0643 12.0342 16.0536 11.6168 15 11.6173C14.468 11.6209 13.9419 11.7293 13.4518 11.9363C12.9617 12.1433 12.5171 12.4449 12.1436 12.8237C11.7701 13.2026 11.4748 13.6513 11.2748 14.1443C11.0747 14.6373 10.9737 15.1649 10.9776 15.6969C10.9768 16.7766 11.4024 17.813 12.1619 18.5805C12.5338 18.957 12.9771 19.2556 13.4657 19.4589C13.9544 19.6622 14.4786 19.7662 15.0079 19.7647C15.8018 19.748 16.5737 19.5007 17.2294 19.0529C17.8852 18.6051 18.3965 17.9762 18.7009 17.2428C19.0054 16.5094 19.0898 15.7033 18.944 14.9227C18.7981 14.1422 18.4283 13.4209 17.8796 12.8469ZM15 18.3732C14.4692 18.3807 13.9481 18.2301 13.5031 17.9405C13.058 17.651 12.7092 17.2357 12.5008 16.7473C12.2925 16.259 12.2341 15.7198 12.3331 15.1982C12.4321 14.6766 12.684 14.1962 13.0568 13.8181C13.4295 13.4401 13.9063 13.1814 14.4264 13.0751C14.9466 12.9688 15.4866 13.0195 15.9778 13.2209C16.4691 13.4224 16.8893 13.7653 17.1851 14.2062C17.4808 14.6471 17.6388 15.166 17.6388 15.6969C17.6414 16.0459 17.5752 16.3921 17.444 16.7155C17.3128 17.0389 17.1191 17.3333 16.874 17.5819C16.629 17.8304 16.3373 18.0283 16.0158 18.164C15.6942 18.2998 15.3491 18.3709 15 18.3732Z" fill="white"/>
<path id="Vector_3" d="M20.2169 11.4298C20.218 11.5564 20.194 11.682 20.1465 11.7994C20.0989 11.9168 20.0287 12.0236 19.9397 12.1138C19.8508 12.204 19.745 12.2758 19.6283 12.325C19.5116 12.3743 19.3864 12.4 19.2597 12.4008C19.1341 12.4007 19.0098 12.3758 18.8939 12.3273C18.7781 12.2789 18.673 12.2079 18.5847 12.1186C18.451 11.9829 18.36 11.811 18.3231 11.6241C18.2862 11.4372 18.305 11.2436 18.377 11.0673C18.4491 10.891 18.5714 10.7397 18.7286 10.6322C18.8859 10.5248 19.0712 10.4658 19.2617 10.4626C19.4846 10.4626 19.7004 10.5408 19.8716 10.6837L19.8913 10.7034C19.9231 10.7293 19.9522 10.7584 19.9781 10.7903L19.9998 10.814C20.1411 10.988 20.2178 11.2056 20.2169 11.4298Z" fill="white"/>
</g>
</g>
</g>
</g>
</g>
</g>
<defs>
<linearGradient id="paint0_linear_475_2068" x1="4.39342" y1="5.0902" x2="25.6066" y2="26.3034" gradientUnits="userSpaceOnUse">
<stop stop-color="#FAE100"/>
<stop offset="0.15" stop-color="#FCB720"/>
<stop offset="0.3" stop-color="#FF7950"/>
<stop offset="0.5" stop-color="#FF1C74"/>
<stop offset="1" stop-color="#6C1CD1"/>
</linearGradient>
<clipPath id="clip0_475_2068">
<rect width="30" height="30" fill="white" transform="translate(0 0.696777)"/>
</clipPath>
</defs>
</svg>
