<svg width="30" height="31" viewBox="0 0 30 31" fill="none" xmlns="http://www.w3.org/2000/svg">
<g id="youtube (5)" clip-path="url(#clip0_475_2079)">
<ellipse id="Ellipse 37" cx="14.9524" cy="15.8066" rx="10.9465" ry="11.3114" fill="white"/>
<path id="Vector" fill-rule="evenodd" clip-rule="evenodd" d="M20.1683 18.8309C20.0525 18.8305 19.9407 18.8727 19.8541 18.9494C19.7679 19.0163 19.7248 19.2691 19.7248 19.7077V19.9268L19.7525 19.954H20.5564L20.5841 19.9268V19.388C20.5841 19.0163 20.4455 18.8306 20.1683 18.8309ZM16.6662 18.8125C16.5819 18.8136 16.499 18.8339 16.4238 18.8718C16.3485 18.9098 16.2829 18.9644 16.2319 19.0316V22.2011C16.3736 22.3533 16.5184 22.4294 16.6662 22.4294H16.7494C16.9404 22.4294 17.0359 22.2832 17.0358 21.9908V19.2967C17.0112 18.9739 16.888 18.8125 16.6662 18.8125ZM11.5933 18.0727H12.545V21.982C12.545 22.2071 12.6159 22.3196 12.7575 22.3196H12.8223C12.9701 22.3196 13.1549 22.1918 13.3767 21.9363V18.0726H14.3377V23.1692H13.3767V22.6212H13.3674C12.9855 23.035 12.6159 23.2419 12.2586 23.2421H12.2401C12.1466 23.2454 12.0538 23.2254 11.9699 23.184C11.886 23.1425 11.8138 23.0808 11.7596 23.0045C11.6487 22.8892 11.5933 22.5513 11.5933 21.9908V18.0727ZM20.1406 17.9541H20.2422C21.1293 17.9541 21.5729 18.4868 21.5728 19.5523V20.7307H19.7525L19.7248 20.7579V21.6347C19.7248 22.1582 19.8511 22.4201 20.1036 22.4202H20.1868C20.2748 22.4179 20.3608 22.3927 20.4363 22.3473C20.5348 22.274 20.5841 22.073 20.5841 21.7445V21.3515H21.5728V21.5706C21.5728 21.9728 21.5359 22.2743 21.462 22.4751C21.2587 23.029 20.8182 23.3061 20.1406 23.3062C19.9412 23.3082 19.7434 23.2709 19.5585 23.1964C19.0225 22.9529 18.7545 22.4841 18.7545 21.7901V19.4061C18.7554 19.2001 18.793 18.996 18.8654 18.8033C19.1426 18.2373 19.5676 17.9542 20.1406 17.9541ZM15.2802 16.2642H16.2319V18.4748H16.2504C16.5276 18.164 16.8079 18.0087 17.0912 18.009C17.7134 18.009 18.0245 18.4473 18.0246 19.324V22.119C18.0231 22.2848 18.0045 22.45 17.9691 22.612C17.8274 23.0198 17.5779 23.2238 17.2206 23.2241H17.0912C16.7894 23.2241 16.5091 23.084 16.2504 22.8039H16.2319V23.1692H15.2802V16.2642ZM8.29447 16.2642H11.6025V17.2507H10.5122L10.4845 17.278V23.1692H9.41258V17.278L9.38485 17.2507H8.29447V16.2642ZM14.1806 14.4742C12.8315 14.4742 11.6857 14.4925 10.7432 14.529C9.52343 14.5535 8.8643 14.5991 8.76581 14.666C8.18056 14.8671 7.75549 15.1867 7.49057 15.6249C7.30583 15.9782 7.20419 16.2248 7.18566 16.3647C7.09324 17.3573 7.04704 18.3924 7.04708 19.4701V19.9908C7.04708 20.8981 7.0748 21.6805 7.13024 22.338C7.13024 23.2148 7.37048 23.8572 7.85094 24.265C8.24523 24.6123 8.64564 24.8133 9.05217 24.8679C10.5429 24.9532 12.2616 24.9958 14.2083 24.9956H15.696C17.3037 24.9956 18.7206 24.9683 19.9465 24.9135C20.6673 24.9135 21.1755 24.8344 21.4712 24.676C22.0563 24.3776 22.4506 23.9362 22.6539 23.3518C22.7524 23.1872 22.8202 22.1002 22.8572 20.091V19.3789C22.8572 18.4897 22.8295 17.7498 22.774 17.1595C22.774 16.2827 22.5522 15.6463 22.1087 15.2505C21.8438 14.94 21.4249 14.7208 20.852 14.5928C19.3736 14.5139 17.6579 14.4743 15.7052 14.4742L14.1806 14.4742ZM14.8344 9.34121L15.01 9.36884C15.1764 9.43573 15.2595 9.56965 15.2595 9.77059V12.4102C15.2595 12.751 15.1209 12.9215 14.8437 12.9217H14.8344C14.5818 12.9217 14.4556 12.7847 14.4556 12.5107V9.6977C14.4556 9.49062 14.5818 9.37178 14.8344 9.34121ZM17.0798 8.57417L17.0521 8.60141V12.757C17.0497 12.9412 17.0683 13.125 17.1076 13.305C17.2061 13.6158 17.4125 13.7711 17.7266 13.7708C18.0778 13.7708 18.4443 13.5639 18.8263 13.15V13.6615L18.8539 13.6887H19.778L19.8057 13.6615V8.60141L19.778 8.57418H18.8539L18.8263 8.60141V12.4558C18.6045 12.6994 18.4227 12.8211 18.2811 12.8211H18.2441C18.0963 12.8211 18.0223 12.6842 18.0224 12.4102V8.60141L17.9946 8.57418L17.0798 8.57417ZM14.8344 8.45523C14.4525 8.45523 14.1414 8.55576 13.9012 8.75684C13.5993 8.94551 13.4484 9.34739 13.4484 9.96247V12.1543C13.4456 12.365 13.4579 12.5757 13.4854 12.7847C13.6825 13.4789 14.1353 13.8259 14.8437 13.8257L15.3057 13.7709C15.934 13.5702 16.2482 13.1319 16.2482 12.4559V9.72495C16.2504 9.57178 16.2221 9.41971 16.165 9.27755C15.931 8.72921 15.5152 8.4551 14.9176 8.45523L14.8344 8.45523ZM9.9001 6.76574L9.88162 6.78416L10.0387 7.31368C10.7841 9.6885 11.1568 10.9184 11.1568 11.0035V13.6615L11.1845 13.6887H12.2287L12.2564 13.6615V10.8757C12.2564 10.8208 12.6753 9.45698 13.5131 6.78415H13.5039L13.4854 6.76572H12.4042L11.7389 9.52387H11.6743C11.4709 8.67152 11.2892 7.96216 11.1291 7.39578C11.0366 6.97561 10.9781 6.76559 10.9535 6.76572L9.9001 6.76574ZM14.9521 1.36121C22.971 1.36121 29.4717 7.86203 29.4717 15.8809C29.4717 23.8998 22.971 30.4002 14.9521 30.4002C6.93328 30.4002 0.432617 23.8998 0.432617 15.8809C0.432617 7.86203 6.93323 1.36121 14.9521 1.36121Z" fill="#FF303C"/>
</g>
<defs>
<clipPath id="clip0_475_2079">
<rect width="30" height="30" fill="white" transform="translate(0 0.696777)"/>
</clipPath>
</defs>
</svg>
