<svg width="60" height="61" viewBox="0 0 60 61" fill="none" xmlns="http://www.w3.org/2000/svg">
<g id="legal-document" clip-path="url(#clip0_475_2236)">
<g id="Layer_1-2_17_">
<g id="legal_document">
<path id="Vector" d="M47.6759 49.7254C47.0844 49.7251 46.6047 50.2045 46.6045 50.796V50.7967V55.0824C46.6018 56.8565 45.1643 58.2939 43.3902 58.2967H6.9616C5.1875 58.294 3.75008 56.8565 3.74727 55.0824V5.79681C3.74996 4.02271 5.1875 2.58528 6.9616 2.58247H43.3902C45.1643 2.58517 46.6017 4.02271 46.6045 5.79681C46.6039 6.38849 47.0831 6.86872 47.6749 6.86931C48.2666 6.86989 48.7468 6.39071 48.7474 5.79892C48.7474 5.79821 48.7474 5.79751 48.7474 5.79681C48.7438 2.8397 46.3474 0.443213 43.3902 0.439697H6.9616C4.00437 0.443213 1.60801 2.8397 1.60449 5.79681V55.0825C1.60801 58.0397 4.00449 60.4361 6.9616 60.4396H43.3902C46.3474 60.4361 48.7438 58.0396 48.7473 55.0825V50.7968C48.7475 50.2052 48.2681 49.7256 47.6766 49.7254C47.6764 49.7254 47.6762 49.7254 47.6759 49.7254Z" fill="white"/>
<path id="Vector_2" d="M54.1043 39.0112H51.9614V35.7968C51.9614 35.2051 51.4818 34.7254 50.89 34.7254V32.4632C50.9046 31.0022 51.6917 29.6581 52.9586 28.9303C55.3348 27.5461 58.2047 24.9045 58.3817 20.1783C58.6498 14.852 54.9267 10.1527 49.6804 9.19515C43.861 8.09347 38.2503 11.9179 37.1486 17.7373C37.0245 18.3927 36.9619 19.0582 36.9614 19.7253C36.9614 24.6946 39.8921 27.4601 42.3501 28.9049C43.6404 29.6281 44.4457 30.9858 44.4614 32.465V34.7244C43.8699 34.7242 43.3902 35.2036 43.39 35.7951V35.7958V39.0101H41.2471C39.473 39.0128 38.0356 40.4503 38.0328 42.2244V46.5101C38.0325 47.1017 38.5119 47.5813 39.1034 47.5816H39.1042H56.2471C56.8388 47.5816 57.3185 47.1019 57.3185 46.5101V42.2251C57.3158 40.4514 55.8784 39.0139 54.1043 39.0112ZM43.4358 27.0573C41.4595 25.8965 39.1043 23.6817 39.1043 19.7255C39.0967 14.991 42.9285 11.1468 47.663 11.1391C52.3975 11.1313 56.2417 14.9632 56.2494 19.6977C56.2497 19.8311 56.2467 19.9646 56.2408 20.0978C56.0996 23.8506 53.7915 25.9651 51.8808 27.0785C49.9554 28.191 48.7631 30.2398 48.7472 32.4633V34.7255H46.6043V32.4659C46.5929 30.2257 45.3844 28.1626 43.4358 27.0573ZM45.5329 36.8683H49.8185V39.0112H45.5329V36.8683ZM55.1758 45.4397H40.1758V42.2254C40.1762 41.6338 40.6556 41.1544 41.2472 41.1539H54.1043C54.6959 41.1544 55.1753 41.6338 55.1758 42.2254V45.4397Z" fill="#8FA5BA"/>
<path id="Vector_3" d="M12.3185 15.4397H29.4614C30.0531 15.4397 30.5329 14.9601 30.5329 14.3683C30.5329 13.7766 30.0532 13.2968 29.4614 13.2968H12.3185C11.7268 13.2968 11.2471 13.7765 11.2471 14.3683C11.2472 14.9601 11.7268 15.4397 12.3185 15.4397Z" fill="white"/>
<path id="Vector_4" d="M12.3185 19.7253H29.4614C30.0531 19.7253 30.5329 19.2457 30.5329 18.6539C30.5329 18.0622 30.0532 17.5825 29.4614 17.5825H12.3185C11.7268 17.5825 11.2471 18.0621 11.2471 18.6539C11.2472 19.2457 11.7268 19.7253 12.3185 19.7253Z" fill="white"/>
<path id="Vector_5" d="M12.3185 24.0111H29.4614C30.0531 24.0111 30.5329 23.5315 30.5329 22.9397C30.5329 22.348 30.0532 21.8682 29.4614 21.8682H12.3185C11.7268 21.8682 11.2471 22.3479 11.2471 22.9397C11.2472 23.5314 11.7268 24.0111 12.3185 24.0111Z" fill="white"/>
<path id="Vector_6" d="M24.1043 51.8682C28.8382 51.8672 32.6749 48.0288 32.6738 43.2949C32.6728 38.561 28.8344 34.7243 24.1005 34.7253C22.3748 34.7257 20.6894 35.2469 19.2648 36.2209C18.7872 36.5703 18.6834 37.2408 19.0328 37.7183C19.3674 38.1755 20.0001 38.2932 20.4767 37.9869C23.4059 35.9896 27.3997 36.7449 29.397 39.6743C31.3944 42.6035 30.639 46.5973 27.7096 48.5946C24.7803 50.5919 20.7867 49.8366 18.7893 46.9072C17.5767 45.1288 17.3361 42.8608 18.1485 40.8675C18.3751 40.3208 18.1155 39.6941 17.5689 39.4676C17.0223 39.241 16.3955 39.5005 16.169 40.0472C15.7437 41.0776 15.5268 42.182 15.5308 43.2967C15.5363 48.0292 19.3719 51.8639 24.1043 51.8682Z" fill="white"/>
<path id="Vector_7" d="M22.914 46.5112C23.2445 46.5111 23.5565 46.3582 23.7592 46.0973L27.092 41.8116C27.4583 41.3471 27.3786 40.6736 26.914 40.3074C26.4495 39.9412 25.776 40.0209 25.4098 40.4854C25.407 40.489 25.4042 40.4925 25.4014 40.4962L22.9131 43.6946L22.8064 43.5575C22.4507 43.0847 21.7792 42.9898 21.3066 43.3455C20.834 43.7011 20.739 44.3726 21.0946 44.8452C21.1015 44.8544 21.1086 44.8634 21.1157 44.8724L22.0679 46.0973C22.2708 46.3585 22.5831 46.5113 22.914 46.5112Z" fill="white"/>
</g>
</g>
</g>
<defs>
<clipPath id="clip0_475_2236">
<rect width="60" height="60" fill="white" transform="translate(0 0.439697)"/>
</clipPath>
</defs>
</svg>
