<svg width="60" height="61" viewBox="0 0 60 61" fill="none" xmlns="http://www.w3.org/2000/svg">
<g id="g2481">
<g id="Clip path group">
<mask id="mask0_475_2150" style="mask-type:luminance" maskUnits="userSpaceOnUse" x="0" y="0" width="60" height="61">
<g id="clipPath2549">
<path id="path2547" d="M0 0.779545H60V60.7795H0V0.779545Z" fill="white"/>
</g>
</mask>
<g mask="url(#mask0_475_2150)">
<g id="g2545">
<g id="g2551">
<path id="path2553" d="M18.7587 10.6642C18.7587 10.6642 17.1712 9.19991 14.7241 9.93702C12.4771 10.6139 11.9192 13.6883 13.4461 14.8859C14.3229 15.5736 15.642 16.1389 17.42 16.7674C21.3992 18.174 19.9282 23.7858 15.8805 23.8127C14.3009 23.8233 13.5624 23.723 12.1748 22.8152" stroke="white" stroke-width="2" stroke-miterlimit="10" stroke-linecap="round" stroke-linejoin="round"/>
</g>
<g id="g2555">
<path id="path2557" d="M15.8809 7.83519V25.8612" stroke="white" stroke-width="2" stroke-miterlimit="10" stroke-linecap="round" stroke-linejoin="round"/>
</g>
<g id="g2559">
<path id="path2561" d="M27.8174 30.8392V50.21C27.8174 51.4098 28.79 52.3823 29.9897 52.3823H53.6552C54.855 52.3823 55.8275 51.4098 55.8275 50.21V23.7733C55.8275 22.5737 54.855 21.6012 53.6552 21.6012H29.9897C28.79 21.6012 27.8174 22.5737 27.8174 23.7733V26.7302M51.2551 31.0352C51.2551 31.4086 50.9525 31.7112 50.5792 31.7112H33.0657C32.6925 31.7112 32.3898 31.4086 32.3898 31.0352V26.5371C32.3898 26.1637 32.6925 25.8612 33.0657 25.8612H50.5792C50.9525 25.8612 51.2551 26.1637 51.2551 26.5371V31.0352Z" stroke="#8FA5BA" stroke-width="2" stroke-miterlimit="10" stroke-linecap="round" stroke-linejoin="round"/>
</g>
<g id="g2563">
<path id="path2565" d="M50.5791 25.8611H33.0657C32.6923 25.8611 32.3896 26.1638 32.3896 26.5371V31.0352C32.3896 31.4085 32.6923 31.7111 33.0657 31.7111H50.5791C50.9525 31.7111 51.2551 31.4085 51.2551 31.0352V26.5371C51.2551 26.1638 50.9525 25.8611 50.5791 25.8611Z" stroke="#8FA5BA" stroke-width="2" stroke-miterlimit="10" stroke-linecap="round" stroke-linejoin="round"/>
</g>
<g id="g2567">
<path id="path2569" d="M49.3322 17.4775V13.2817C49.3322 12.5184 49.0207 11.8163 48.5161 11.3118C47.2289 10.0245 39.6787 2.47448 39.6787 2.47448C39.4439 2.23952 39.1666 2.0471 38.8628 1.9087C38.5038 1.74534 38.1108 1.65839 37.7087 1.65839H6.95777C5.4191 1.65839 4.17188 2.90573 4.17188 4.4444V57.1147C4.17188 58.6533 5.4191 59.9006 6.95777 59.9006H46.5463C48.0848 59.9006 49.3322 58.6533 49.3322 57.1147V56.4863" stroke="white" stroke-width="2" stroke-miterlimit="10" stroke-linecap="round" stroke-linejoin="round"/>
</g>
<g id="g2571">
<path id="path2573" d="M49.0781 12.1278H41.0814C39.8558 12.1278 38.8623 11.1343 38.8623 9.90875V1.90871" stroke="white" stroke-width="2" stroke-miterlimit="10" stroke-linecap="round" stroke-linejoin="round"/>
</g>
</g>
</g>
</g>
<path id="path2485" d="M22.5337 31.7112H10.7178" stroke="white" stroke-width="2" stroke-miterlimit="10" stroke-linecap="round" stroke-linejoin="round"/>
<path id="path2489" d="M22.5337 39.3772H10.7178" stroke="white" stroke-width="2" stroke-miterlimit="10" stroke-linecap="round" stroke-linejoin="round"/>
<path id="path2493" d="M22.5337 47.0427H10.7178" stroke="white" stroke-width="2" stroke-miterlimit="10" stroke-linecap="round" stroke-linejoin="round"/>
<g id="Group 156">
<path id="path2497" d="M32.3906 36.5242H34.256" stroke="#8FA5BA" stroke-width="2" stroke-miterlimit="10" stroke-linecap="round" stroke-linejoin="round"/>
<path id="path2501" d="M38.0576 36.5242H39.923" stroke="#8FA5BA" stroke-width="2" stroke-miterlimit="10" stroke-linecap="round" stroke-linejoin="round"/>
<path id="path2505" d="M43.7236 36.5242H45.589" stroke="#8FA5BA" stroke-width="2" stroke-miterlimit="10" stroke-linecap="round" stroke-linejoin="round"/>
<path id="path2509" d="M49.3906 36.5242H51.2559" stroke="#8FA5BA" stroke-width="2" stroke-miterlimit="10" stroke-linecap="round" stroke-linejoin="round"/>
<path id="path2513" d="M32.3906 41.0945H34.256" stroke="#8FA5BA" stroke-width="2" stroke-miterlimit="10" stroke-linecap="round" stroke-linejoin="round"/>
<path id="path2517" d="M38.0576 41.0945H39.923" stroke="#8FA5BA" stroke-width="2" stroke-miterlimit="10" stroke-linecap="round" stroke-linejoin="round"/>
<path id="path2521" d="M43.7236 41.0945H45.589" stroke="#8FA5BA" stroke-width="2" stroke-miterlimit="10" stroke-linecap="round" stroke-linejoin="round"/>
<path id="path2525" d="M49.3906 41.0945H51.2559" stroke="#8FA5BA" stroke-width="2" stroke-miterlimit="10" stroke-linecap="round" stroke-linejoin="round"/>
<path id="path2529" d="M32.3906 45.6648H34.256" stroke="#8FA5BA" stroke-width="2" stroke-miterlimit="10" stroke-linecap="round" stroke-linejoin="round"/>
<path id="path2533" d="M38.0576 45.6648H39.923" stroke="#8FA5BA" stroke-width="2" stroke-miterlimit="10" stroke-linecap="round" stroke-linejoin="round"/>
<path id="path2537" d="M43.7236 45.6648H45.589" stroke="#8FA5BA" stroke-width="2" stroke-miterlimit="10" stroke-linecap="round" stroke-linejoin="round"/>
<path id="path2541" d="M49.3906 45.6648H51.2559" stroke="#8FA5BA" stroke-width="2" stroke-miterlimit="10" stroke-linecap="round" stroke-linejoin="round"/>
</g>
</g>
</svg>
