<svg width="60" height="61" viewBox="0 0 60 61" fill="none" xmlns="http://www.w3.org/2000/svg">
<g id="Group 154">
<path id="Vector" d="M25.7725 28.1888C25.4596 28.2142 25.146 28.3132 24.8538 28.4787C21.4588 30.4324 19.14 33.9469 19.1369 37.9731C19.1369 40.2127 19.8251 42.2963 21.005 44.0203C21.7677 45.1377 22.8193 45.9922 23.928 46.7469V58.3495H7.98332V33.8986C7.98807 33.3126 7.50816 32.8343 6.91896 32.843C6.34164 32.8501 5.8752 33.3213 5.88391 33.8986V59.3925C5.88391 59.9698 6.34956 60.4402 6.92609 60.4402H24.9774C25.6948 60.4402 26.0077 59.9033 26.0195 59.3925V46.3217C26.0195 45.951 25.8263 45.6073 25.5087 45.4228C24.3985 44.7631 23.4458 43.8841 22.6166 42.6621C21.7843 41.4418 21.2276 39.7843 21.2276 37.9731C21.2307 34.9424 22.9556 32.3393 25.4874 30.6858V38.2788C25.4874 38.6502 25.6901 38.9971 26.0116 39.1816L29.4716 41.1915C29.7931 41.3768 30.1986 41.3768 30.5232 41.1915L33.98 39.1816C34.3063 38.9971 34.5043 38.651 34.5043 38.2788V30.6858C37.0361 32.3393 38.7609 34.9424 38.7641 37.9731C38.7641 39.7843 38.2073 41.4418 37.3782 42.6621C36.5459 43.8841 35.5932 44.7623 34.4829 45.4228C34.1661 45.6073 33.9721 45.951 33.9721 46.3217V59.3925C33.9879 59.904 34.2968 60.4402 35.0143 60.4402H53.0648C53.6421 60.4402 54.1069 59.9698 54.1069 59.3925V33.8986C54.1164 33.3213 53.6539 32.8501 53.0719 32.843C52.4859 32.8351 52.0028 33.3126 52.0075 33.8986V58.3495H36.0644V46.7469C37.1778 45.9922 38.2256 45.1377 38.9874 44.0203C40.1721 42.2963 40.8556 40.2127 40.8556 37.9731C40.8524 33.9469 38.5384 30.4332 35.1386 28.4787C33.9721 27.8103 32.4088 28.2474 32.4088 30.0459V37.6769L29.9958 39.0747L27.5828 37.6769V30.0459C27.5836 28.6972 26.7053 28.1152 25.7725 28.1888Z" fill="white"/>
<path id="Vector_2" d="M29.9967 2.86421L56.3735 24.0238C57.8679 25.2204 57.7689 26.6554 57.0537 27.5788C56.143 28.7508 54.7643 28.5853 53.8662 27.8678L30.6524 9.2535C30.2691 8.94861 29.7242 8.94861 29.3457 9.2535L6.12708 27.8678C4.88533 28.8617 3.81305 28.556 2.94272 27.5788C2.16346 26.7045 2.13099 25.2196 3.61982 24.0238L29.9967 2.86421ZM29.3457 0.69907L2.31155 22.39C0.0640559 24.1925 -0.015137 27.0094 1.23215 28.7833C1.85382 29.6703 2.79463 30.3371 3.92472 30.5319C5.05559 30.7219 6.32031 30.3917 7.4393 29.4968L29.9967 11.4099L52.5587 29.4968C53.6754 30.3909 54.9425 30.7219 56.0733 30.5319C57.1995 30.3371 58.1474 29.6703 58.7706 28.7833C60.0156 27.0094 59.934 24.1925 57.6849 22.39L30.6524 0.69907C30.182 0.323695 29.7321 0.385466 29.3457 0.69907Z" fill="#8FA5BA"/>
</g>
</svg>
