<svg width="60" height="61" viewBox="0 0 60 61" fill="none" xmlns="http://www.w3.org/2000/svg">
<g id="g3194">
<g id="Clip path group">
<mask id="mask0_475_2207" style="mask-type:luminance" maskUnits="userSpaceOnUse" x="0" y="0" width="60" height="61">
<g id="clipPath3200">
<path id="path3198" d="M0 0.439701H60V60.4397H0V0.439701Z" fill="white"/>
</g>
</mask>
<g mask="url(#mask0_475_2207)">
<g id="g3196">
<g id="g3202">
<path id="path3204" d="M38.0897 45.1059L28.6347 57.1599C27.9536 58.0283 26.6976 58.182 25.8284 57.5035L22.9526 55.2585" stroke="white" stroke-width="2" stroke-miterlimit="10" stroke-linecap="round" stroke-linejoin="round"/>
</g>
<g id="g3206">
<path id="path3208" d="M19.2637 24.8792L37.1427 2.08536C37.8238 1.217 39.0798 1.06325 39.9491 1.74177L58.3157 16.0798C59.1862 16.7592 59.339 18.0158 58.6568 18.8855L54.5107 24.1712" stroke="white" stroke-width="2" stroke-miterlimit="10" stroke-linecap="round" stroke-linejoin="round"/>
</g>
<g id="g3210">
<path id="path3212" d="M34.4639 14.7025L42.251 9.48892C43.1682 8.87486 44.4094 9.11919 45.0239 10.0349L57.9995 29.37C58.6146 30.2868 58.3687 31.529 57.4505 32.1438L17.0052 59.2222C16.0879 59.8363 14.847 59.592 14.2323 58.6763L1.25683 39.3411C0.6416 38.4244 0.887344 37.1822 1.80563 36.5673L30.381 17.436" stroke="white" stroke-width="2" stroke-miterlimit="10" stroke-linecap="round" stroke-linejoin="round"/>
</g>
<g id="g3214">
<path id="path3216" d="M27.588 44.8145C24.8999 44.291 22.4126 42.7401 20.767 40.288C17.4862 35.3993 18.7939 28.7802 23.6877 25.5039C28.5814 22.2274 35.208 23.5346 38.4888 28.4231C41.7695 33.3119 40.4618 39.9308 35.5682 43.2073C34.617 43.8441 33.6005 44.3077 32.5557 44.6056" stroke="#8FA5BA" stroke-width="2" stroke-miterlimit="10" stroke-linecap="round" stroke-linejoin="round"/>
</g>
<g id="g3218">
<path id="path3220" d="M7.34041 32.8617C10.0054 36.833 8.9433 42.2098 4.96795 44.8712L1.25498 39.3386C0.640565 38.423 0.887127 37.1823 1.80553 36.5674L7.34041 32.8617Z" stroke="white" stroke-width="2" stroke-miterlimit="10" stroke-linecap="round" stroke-linejoin="round"/>
</g>
<g id="g3222">
<path id="path3224" d="M10.5293 53.1586C14.5131 50.4915 19.8983 51.5418 22.5578 55.5046L17.0075 59.2205C16.089 59.8354 14.8465 59.5917 14.2321 58.6761L10.5293 53.1586Z" stroke="white" stroke-width="2" stroke-miterlimit="10" stroke-linecap="round" stroke-linejoin="round"/>
</g>
<g id="g3226">
<path id="path3228" d="M51.9184 35.8532C49.2535 31.882 50.3155 26.5052 54.2909 23.8437L58.0038 29.3764C58.6183 30.292 58.3717 31.5326 57.4533 32.1475L51.9184 35.8532Z" stroke="white" stroke-width="2" stroke-miterlimit="10" stroke-linecap="round" stroke-linejoin="round"/>
</g>
<g id="g3230">
<path id="path3232" d="M48.7292 15.5563C44.7454 18.2233 39.3601 17.1731 36.7007 13.2103L42.2509 9.4944C43.1694 8.87952 44.412 9.12315 45.0264 10.0387L48.7292 15.5563Z" stroke="white" stroke-width="2" stroke-miterlimit="10" stroke-linecap="round" stroke-linejoin="round"/>
</g>
<g id="g3234">
<path id="path3236" d="M43.0127 25.3945L47.1502 22.6244" stroke="white" stroke-width="2" stroke-miterlimit="10" stroke-linecap="round" stroke-linejoin="round"/>
</g>
<g id="g3238">
<path id="path3240" d="M12.106 46.0867L16.2434 43.3167" stroke="white" stroke-width="2" stroke-miterlimit="10" stroke-linecap="round" stroke-linejoin="round"/>
</g>
<g id="g3242">
<path id="path3244" d="M28.6317 28.8642C28.6317 28.8642 26.9242 28.6003 25.6244 30.1788C24.431 31.6282 25.4279 33.9152 26.9764 34.0293C27.8656 34.0948 28.9947 33.8823 30.4569 33.5073C33.7296 32.6679 35.2482 37.0438 32.5679 38.8643C31.5219 39.5747 30.986 39.837 29.6592 39.8531" stroke="#8FA5BA" stroke-width="2" stroke-miterlimit="10" stroke-linecap="round" stroke-linejoin="round"/>
</g>
<g id="g3246">
<path id="path3248" d="M25.4585 28.2702L33.4794 40.2225" stroke="#8FA5BA" stroke-width="2" stroke-miterlimit="10" stroke-linecap="round" stroke-linejoin="round"/>
</g>
</g>
</g>
</g>
</g>
</svg>
