<svg width="68" height="61" viewBox="0 0 68 61" fill="none" xmlns="http://www.w3.org/2000/svg">
<g id="Group 153">
<path id="Vector" d="M62.3808 29.4911H60.3023V26.6055C58.8603 -8.28124 9.13988 -8.28328 7.69755 26.6056V29.4911H5.6191C4.27721 29.4924 2.99065 30.026 2.04174 30.9748C1.09283 31.9236 0.559081 33.2101 0.557617 34.552V40.7618C0.559036 42.1038 1.09274 43.3904 2.04162 44.3394C2.99051 45.2884 4.27709 45.8223 5.6191 45.8238H7.69755V51.6686C7.69939 53.3285 8.35963 54.92 9.53341 56.0938C10.7072 57.2676 12.2987 57.9278 13.9586 57.9297H24.6186C24.8451 58.6552 25.2969 59.2896 25.9084 59.741C26.5199 60.1923 27.2593 60.4371 28.0193 60.4397H33.0569C37.818 60.3347 37.8152 53.1318 33.0568 53.0297H28.0193C27.2591 53.0324 26.5195 53.2772 25.9079 53.7288C25.2963 54.1804 24.8446 54.8151 24.6183 55.5409H13.9587C12.932 55.5398 11.9477 55.1315 11.2217 54.4055C10.4958 53.6795 10.0874 52.6952 10.0863 51.6686V48.9618C13.4052 51.0901 18.2898 48.7964 18.2153 44.6818L18.2153 30.633C18.2117 29.9355 18.065 29.2461 17.7844 28.6075C17.5037 27.969 17.095 27.3948 16.5836 26.9204C16.0722 26.4461 15.469 26.0817 14.8111 25.8498C14.1533 25.6178 13.4549 25.5233 12.759 25.5721C11.8174 25.5752 10.8957 25.8434 10.0994 26.346C10.1645 20.05 12.7112 14.0339 17.1864 9.60484C21.6615 5.17573 27.7035 2.69131 33.9999 2.6913C40.2962 2.6913 46.3382 5.17569 50.8134 9.60479C55.2885 14.0339 57.8353 20.0499 57.9004 26.3459C57.1041 25.8434 56.1824 25.5752 55.2408 25.5721C54.545 25.5233 53.8465 25.6178 53.1887 25.8497C52.5308 26.0816 51.9276 26.446 51.4162 26.9204C50.9047 27.3947 50.4961 27.969 50.2154 28.6075C49.9348 29.2461 49.7881 29.9355 49.7845 30.633V44.682C49.8356 45.9442 50.3377 47.1463 51.1996 48.0698C52.0615 48.9934 53.226 49.5773 54.4817 49.7155C55.7374 49.8537 57.001 49.537 58.0431 48.8229C59.0851 48.1088 59.8366 47.0447 60.161 45.8238L62.3807 45.8239C63.7228 45.8223 65.0093 45.2884 65.9582 44.3394C66.9071 43.3904 67.4408 42.1038 67.4422 40.7618V34.552C67.4408 33.2101 66.907 31.9236 65.9581 30.9748C65.0092 30.026 63.7226 29.4924 62.3808 29.4911ZM7.69755 43.4351H5.6191C4.9104 43.4343 4.23099 43.1523 3.72992 42.6511C3.22885 42.15 2.94705 41.4705 2.94635 40.7618V34.552C2.94729 33.8435 3.22921 33.1643 3.73026 32.6633C4.23131 32.1624 4.91059 31.8806 5.6191 31.8798H7.69755V43.4351ZM28.0193 55.4184H33.0569C33.2341 55.4224 33.4084 55.4643 33.568 55.5413C33.7276 55.6184 33.8687 55.7289 33.982 55.8652C34.0952 56.0016 34.1778 56.1606 34.2243 56.3317C34.2707 56.5027 34.2799 56.6817 34.2512 56.8566C34.2509 57.1733 34.125 57.4769 33.9011 57.7008C33.6772 57.9247 33.3736 58.0507 33.0569 58.051H28.0193C27.8422 58.047 27.6679 58.0051 27.5083 57.928C27.3487 57.851 27.2075 57.7405 27.0943 57.6042C26.9811 57.4678 26.8984 57.3088 26.852 57.1377C26.8055 56.9667 26.7963 56.7877 26.825 56.6128C26.8253 56.2961 26.9512 55.9925 27.1751 55.7686C27.3991 55.5447 27.7027 55.4188 28.0193 55.4184ZM12.7591 27.9608C13.14 27.9133 13.5268 27.9467 13.894 28.0588C14.2612 28.1709 14.6006 28.3591 14.8901 28.6113C15.1796 28.8635 15.4126 29.1739 15.574 29.5222C15.7354 29.8706 15.8215 30.2491 15.8266 30.633V44.682C15.7964 48.2478 10.1173 48.2526 10.0863 44.6819C10.0772 44.6618 10.0928 30.7178 10.0863 30.6855C10.08 30.3303 10.1445 29.9774 10.2759 29.6474C10.4074 29.3174 10.6032 29.0169 10.852 28.7633C11.1007 28.5097 11.3974 28.3082 11.7249 28.1704C12.0523 28.0326 12.4038 27.9614 12.7591 27.9608ZM57.9135 44.682C57.9084 45.0659 57.8223 45.4443 57.6609 45.7927C57.4995 46.1411 57.2665 46.4515 56.977 46.7036C56.6875 46.9558 56.3481 47.1441 55.9809 47.2561C55.6137 47.3682 55.2269 47.4016 54.846 47.3541C54.1375 47.3533 53.4582 47.0716 52.9571 46.5706C52.4561 46.0697 52.1742 45.3905 52.1732 44.682V30.633C52.1742 29.9245 52.4561 29.2452 52.9571 28.7443C53.4582 28.2434 54.1375 27.9616 54.846 27.9608C55.2313 27.9128 55.6225 27.9476 55.9933 28.0627C56.3642 28.1779 56.7062 28.3709 56.9965 28.6288C57.2868 28.8867 57.5188 29.2035 57.677 29.5582C57.8351 29.9128 57.9158 30.2972 57.9136 30.6855C57.9136 30.6855 57.9222 44.6316 57.9135 44.682ZM65.0535 40.7618C65.0528 41.4705 64.771 42.15 64.2699 42.6511C63.7689 43.1523 63.0895 43.4343 62.3808 43.4351H60.3023C60.3062 40.6296 60.2995 34.6416 60.3023 31.8798H62.3808C63.0893 31.8806 63.7686 32.1624 64.2696 32.6633C64.7707 33.1643 65.0526 33.8435 65.0535 34.552V40.7618Z" fill="white"/>
<path id="Vector_2" d="M33.9998 16.3764C31.7287 16.3743 29.5085 17.0492 27.6229 18.315C25.7372 19.5807 24.2717 21.3798 23.4134 23.4825C22.5552 25.5852 22.3432 27.896 22.8046 30.1197C23.266 32.3435 24.3798 34.3792 26.0037 35.9668V42.656C26.0073 42.8898 26.079 43.1175 26.2101 43.3112C26.3411 43.5049 26.5258 43.6562 26.7414 43.7465C26.9571 43.8369 27.1945 43.8624 27.4244 43.8199C27.6544 43.7774 27.867 43.6688 28.0361 43.5074L32.4754 39.1382C34.0271 39.3472 35.6052 39.2352 37.1119 38.8091C38.6185 38.3831 40.0216 37.6521 41.2341 36.6614C42.4466 35.6708 43.4427 34.4416 44.1606 33.0502C44.8785 31.6587 45.303 30.1346 45.4076 28.5724C45.5122 27.0101 45.2948 25.4431 44.7689 23.9683C44.2429 22.4935 43.4196 21.1425 42.3501 19.9991C41.2805 18.8556 39.9874 17.944 38.551 17.3208C37.1146 16.6977 35.5655 16.3762 33.9998 16.3764ZM32.2951 36.6877C32.1051 36.6517 31.9092 36.6622 31.7241 36.7183C31.539 36.7743 31.3702 36.8742 31.232 37.0096L28.3925 39.8042V35.449C28.3925 35.2807 28.357 35.1143 28.2881 34.9607C28.2193 34.8071 28.1187 34.6698 27.993 34.5579C27.0401 33.7104 26.277 32.6713 25.7535 31.5086C25.23 30.3458 24.9579 29.0856 24.9552 27.8104C25.378 15.8419 42.6211 15.8395 43.0445 27.8105C43.0456 29.143 42.752 30.4591 42.1848 31.6647C41.6175 32.8703 40.7905 33.9355 39.7631 34.7839C38.7358 35.6324 37.5335 36.243 36.2423 36.5721C34.9512 36.9013 33.6033 36.9407 32.2951 36.6877Z" fill="#8FA5BA"/>
<path id="Vector_3" d="M29.6954 26.7661C29.3661 26.7708 29.0519 26.905 28.8207 27.1396C28.5895 27.3741 28.46 27.6902 28.46 28.0196C28.46 28.3489 28.5896 28.665 28.8208 28.8996C29.052 29.1341 29.3662 29.2683 29.6955 29.273C30.0248 29.2683 30.339 29.1341 30.5701 28.8995C30.8013 28.665 30.9309 28.3488 30.9309 28.0195C30.9309 27.6902 30.8013 27.3741 30.5701 27.1395C30.3389 26.905 30.0247 26.7708 29.6954 26.7661Z" fill="#8FA5BA"/>
<path id="Vector_4" d="M34.0001 26.7661C33.6708 26.7708 33.3566 26.905 33.1254 27.1396C32.8942 27.3741 32.7646 27.6902 32.7646 28.0196C32.7647 28.3489 32.8943 28.665 33.1255 28.8996C33.3566 29.1341 33.6709 29.2683 34.0002 29.273C34.3295 29.2683 34.6437 29.1341 34.8748 28.8995C35.106 28.665 35.2356 28.3488 35.2356 28.0195C35.2356 27.6902 35.106 27.3741 34.8748 27.1395C34.6436 26.905 34.3294 26.7708 34.0001 26.7661Z" fill="#8FA5BA"/>
<path id="Vector_5" d="M38.3038 26.7661C37.9745 26.7708 37.6603 26.905 37.4291 27.1396C37.1979 27.3741 37.0683 27.6902 37.0684 28.0196C37.0684 28.3489 37.198 28.665 37.4292 28.8996C37.6604 29.1341 37.9746 29.2683 38.3039 29.273C38.6332 29.2683 38.9474 29.1341 39.1785 28.8995C39.4097 28.665 39.5393 28.3488 39.5393 28.0195C39.5393 27.6902 39.4097 27.3741 39.1785 27.1395C38.9473 26.905 38.6331 26.7708 38.3038 26.7661Z" fill="#8FA5BA"/>
</g>
</svg>
