<svg width="60" height="46" viewBox="0 0 60 46" fill="none" xmlns="http://www.w3.org/2000/svg">
<g id="Group 155">
<path id="Vector" d="M54.6429 0.939697H5.35714C3.93685 0.941365 2.57521 1.50631 1.57091 2.51061C0.566615 3.51491 0.00166732 4.87655 0 6.29684V40.5826C0.00166732 42.0028 0.566615 43.3645 1.57091 44.3688C2.57521 45.3731 3.93685 45.938 5.35714 45.9397H54.6429C56.0631 45.938 57.4248 45.3731 58.4291 44.3688C59.4334 43.3645 59.9983 42.0028 60 40.5826V6.29684C59.9983 4.87655 59.4334 3.51491 58.4291 2.51061C57.4248 1.50631 56.0631 0.941365 54.6429 0.939697ZM57.8571 40.5826C57.8562 41.4347 57.5173 42.2518 56.9147 42.8544C56.3121 43.457 55.4951 43.7959 54.6429 43.7968H5.35714C4.50495 43.7959 3.68792 43.457 3.08533 42.8544C2.48273 42.2518 2.14379 41.4347 2.14286 40.5826V11.654H29.7473L33.8065 13.6838C33.9553 13.7582 34.1194 13.7969 34.2857 13.7968H57.8571V40.5826ZM57.8571 11.654H34.5384L30.4792 9.62413C30.3304 9.5498 30.1663 9.51111 30 9.51113H2.14286V6.29684C2.14379 5.44464 2.48273 4.62762 3.08533 4.02502C3.68792 3.42243 4.50495 3.08348 5.35714 3.08255H54.6429C55.4951 3.08348 56.3121 3.42243 56.9147 4.02502C57.5173 4.62762 57.8562 5.44464 57.8571 6.29684V11.654Z" fill="white"/>
<path id="Vector_2" d="M34.2856 21.2968H52.4998C52.7803 21.2912 53.0473 21.1759 53.2437 20.9756C53.44 20.7753 53.55 20.5059 53.55 20.2254C53.55 19.9449 53.44 19.6756 53.2437 19.4753C53.0473 19.2749 52.7803 19.1596 52.4998 19.154H34.2855C34.0051 19.1596 33.738 19.275 33.5417 19.4753C33.3453 19.6756 33.2353 19.9449 33.2354 20.2255C33.2354 20.506 33.3453 20.7753 33.5417 20.9756C33.7381 21.1759 34.0051 21.2912 34.2856 21.2968Z" fill="white"/>
<path id="Vector_3" d="M34.2856 26.2968H47.1427C47.4232 26.2914 47.6905 26.1761 47.8869 25.9757C48.0834 25.7754 48.1934 25.506 48.1934 25.2254C48.1934 24.9448 48.0833 24.6754 47.8869 24.4751C47.6904 24.2747 47.4232 24.1595 47.1426 24.154H34.2856C34.0051 24.1596 33.738 24.2749 33.5417 24.4753C33.3453 24.6756 33.2354 24.9449 33.2354 25.2254C33.2354 25.5059 33.3453 25.7753 33.5417 25.9756C33.738 26.1759 34.0051 26.2912 34.2856 26.2968Z" fill="white"/>
<path id="Vector_4" d="M52.4998 29.154H34.2855C34.0051 29.1596 33.738 29.275 33.5417 29.4753C33.3453 29.6756 33.2353 29.9449 33.2354 30.2255C33.2354 30.506 33.3453 30.7753 33.5417 30.9756C33.7381 31.1759 34.0051 31.2912 34.2856 31.2968H52.4998C52.7803 31.2912 53.0473 31.1759 53.2437 30.9756C53.44 30.7753 53.55 30.5059 53.55 30.2254C53.55 29.9449 53.44 29.6756 53.2437 29.4753C53.0473 29.2749 52.7803 29.1596 52.4998 29.154Z" fill="white"/>
<path id="Vector_5" d="M47.1427 34.154H34.2856C34.005 34.1595 33.7378 34.2748 33.5414 34.4751C33.3449 34.6754 33.2349 34.9449 33.2349 35.2255C33.2349 35.506 33.3449 35.7755 33.5414 35.9758C33.7379 36.1761 34.0051 36.2914 34.2856 36.2968H47.1427C47.4232 36.2912 47.6902 36.1759 47.8866 35.9756C48.0829 35.7753 48.1929 35.5059 48.1929 35.2254C48.1929 34.9449 48.0829 34.6756 47.8866 34.4753C47.6902 34.2749 47.4232 34.1596 47.1427 34.154Z" fill="white"/>
<path id="Vector_6" d="M19.5168 28.3795C20.6271 27.5444 21.4467 26.3813 21.8596 25.0547C22.2725 23.7282 22.2578 22.3054 21.8176 20.9876C21.3773 19.6699 20.5339 18.524 19.4065 17.712C18.2792 16.9 16.925 16.4631 15.5357 16.4631C14.1464 16.4631 12.7922 16.9 11.6649 17.712C10.5375 18.524 9.69403 19.6699 9.2538 20.9876C8.81356 22.3054 8.79885 23.7282 9.21175 25.0547C9.62465 26.3813 10.4443 27.5444 11.5546 28.3795C10.0653 28.9981 8.74242 29.9582 7.69259 31.1823C6.64275 32.4064 5.89543 33.8602 5.51092 35.4263C5.40855 35.8423 5.40286 36.2763 5.49427 36.6949C5.58568 37.1136 5.77178 37.5057 6.03827 37.8412C6.31362 38.1953 6.66643 38.4816 7.06962 38.6782C7.4728 38.8748 7.91567 38.9765 8.36423 38.9754H22.7071C23.1442 38.9757 23.5758 38.878 23.9701 38.6893C24.3644 38.5006 24.7113 38.2258 24.9852 37.8851C25.2591 37.5445 25.453 37.1467 25.5526 36.7211C25.6523 36.2955 25.6551 35.853 25.5609 35.4262C25.1762 33.8601 24.4288 32.4064 23.3789 31.1823C22.329 29.9583 21.006 28.9982 19.5168 28.3795ZM11.0554 23.0985C11.066 21.9173 11.5428 20.788 12.3818 19.9565C13.2209 19.125 14.3544 18.6584 15.5357 18.6585C16.717 18.6585 17.8505 19.125 18.6896 19.9565C19.5287 20.7881 20.0054 21.9173 20.016 23.0986C20.0054 24.2799 19.5286 25.4091 18.6895 26.2406C17.8505 27.0722 16.717 27.5387 15.5357 27.5387C14.3543 27.5387 13.2208 27.0721 12.3818 26.2406C11.5427 25.4091 11.066 24.2798 11.0554 23.0985ZM23.3459 36.5196C23.2699 36.6166 23.173 36.6951 23.0624 36.7493C22.9518 36.8034 22.8303 36.8319 22.7071 36.8325H8.36423C8.24106 36.8319 8.11961 36.8034 8.00899 36.7493C7.89837 36.6951 7.80144 36.6166 7.72546 36.5196C7.66 36.4396 7.61387 36.3456 7.59064 36.2449C7.56742 36.1442 7.56772 36.0395 7.59153 35.9389C8.03111 34.1642 9.05225 32.5878 10.4921 31.4611C11.932 30.3344 13.7076 29.7222 15.536 29.7222C17.3643 29.7222 19.1399 30.3344 20.5798 31.4611C22.0197 32.5878 23.0408 34.1642 23.4804 35.9389C23.504 36.0395 23.5041 36.1443 23.4808 36.2449C23.4575 36.3456 23.4114 36.4396 23.3459 36.5196Z" fill="#8FA5BA"/>
<path id="Vector_7" d="M54.4479 6.78708C54.4149 6.72414 54.3751 6.66503 54.3291 6.61084L54.3277 6.60977C54.233 6.51007 54.1176 6.43229 53.9897 6.38187C53.8574 6.32564 53.7151 6.2967 53.5714 6.29681H42.857L42.8486 6.29852C42.7078 6.29908 42.5685 6.32744 42.4387 6.38196C42.3112 6.43234 42.1963 6.50985 42.1018 6.6091L42.0993 6.611C42.0534 6.66514 42.0136 6.72418 41.9806 6.78705C41.8541 6.95446 41.7856 7.15858 41.7856 7.36844C41.7857 7.57829 41.8542 7.78239 41.9808 7.94976C42.0137 8.01254 42.0535 8.07151 42.0993 8.12562L42.1017 8.12738C42.1962 8.22669 42.3112 8.3042 42.4387 8.35453C42.571 8.41082 42.7133 8.43978 42.8571 8.43967H53.5714C53.7152 8.43974 53.8576 8.41074 53.9899 8.3544C54.1172 8.30411 54.232 8.22669 54.3264 8.12754L54.3292 8.12552C54.375 8.07141 54.4147 8.01244 54.4477 7.94966C54.5743 7.7823 54.6427 7.57823 54.6428 7.36841C54.6428 7.15859 54.5744 6.95448 54.4479 6.78708Z" fill="white"/>
</g>
</svg>
