<svg width="60" height="61" viewBox="0 0 60 61" fill="none" xmlns="http://www.w3.org/2000/svg">
<rect width="60" height="61" fill="#F5F5F5"/>
<g id="&#208;&#158;&#209;&#129;&#208;&#189;&#208;&#190;&#208;&#178;&#208;&#189;&#208;&#190;&#208;&#185;">
<g clip-path="url(#clip0_322_977)">
<rect x="-692" y="-2562" width="1440" height="5131" fill="#172430"/>
<rect id="Rectangle 158" x="221" y="161.44" width="384" height="190" transform="rotate(-180 221 161.44)" fill="#28394B"/>
<g id="g2253">
<path id="path2257" d="M7.8252 22.9311H30.3232" stroke="white" stroke-width="2" stroke-miterlimit="10" stroke-linecap="round" stroke-linejoin="round"/>
<path id="path2261" d="M7.8252 29.1064H30.3232" stroke="white" stroke-width="2" stroke-miterlimit="10" stroke-linecap="round" stroke-linejoin="round"/>
<path id="path2265" d="M7.8252 35.2816H30.3232" stroke="white" stroke-width="2" stroke-miterlimit="10" stroke-linecap="round" stroke-linejoin="round"/>
<path id="path2269" d="M7.8252 41.4569H30.3232" stroke="white" stroke-width="2" stroke-miterlimit="10" stroke-linecap="round" stroke-linejoin="round"/>
<path id="path2273" d="M7.8252 50.5069H19.1031" stroke="white" stroke-width="2" stroke-miterlimit="10" stroke-linecap="round" stroke-linejoin="round"/>
<g id="Clip path group">
<mask id="mask0_322_977" style="mask-type:luminance" maskUnits="userSpaceOnUse" x="0" y="0" width="60" height="61">
<g id="clipPath2281">
<path id="path2279" d="M0 0.779545H60V60.7795H0V0.779545Z" fill="white"/>
</g>
</mask>
<g mask="url(#mask0_322_977)">
<g id="g2277">
<g id="g2283">
<path id="path2285" d="M21.9612 12.7546H20.4375C19.8348 12.7546 19.3463 12.266 19.3463 11.6633V8.81167C19.3463 8.20898 19.8348 7.72042 20.4375 7.72042H38.4805C39.0832 7.72042 39.5718 8.20898 39.5718 8.81167V11.6633C39.5718 12.266 39.0832 12.7546 38.4805 12.7546H26.0698M47.0217 16.8306V5.13034C47.0217 3.21421 45.4684 1.66089 43.5522 1.66089H13.7353C12.8152 1.66089 11.9326 2.02652 11.282 2.67714L2.22072 11.7384C1.5701 12.3891 1.20459 13.2715 1.20459 14.1916V56.4336C1.20459 58.3498 2.75791 59.9031 4.67393 59.9031H43.5522C45.4684 59.9031 47.0217 58.3498 47.0217 56.4336V55.2501" stroke="white" stroke-width="2" stroke-miterlimit="10" stroke-linecap="round" stroke-linejoin="round"/>
</g>
<g id="g2287">
<path id="path2289" d="M41.7778 43.5509V52.4283C41.7778 53.2001 42.6242 53.673 43.2815 53.2683L46.5045 51.2842C46.663 51.1866 46.8423 51.1379 47.0215 51.1379C47.2008 51.1379 47.3802 51.1866 47.5387 51.2842L50.7617 53.2683C51.419 53.673 52.2652 53.2001 52.2652 52.4283V43.5509" stroke="#8FA5BA" stroke-width="2" stroke-miterlimit="10" stroke-linecap="round" stroke-linejoin="round"/>
</g>
<g id="g2291">
<path id="path2293" d="M47.0215 39.6639C43.439 39.6639 40.5347 36.7596 40.5347 33.1771C40.5347 29.5946 43.439 26.6903 47.0215 26.6903C50.6041 26.6903 53.5083 29.5946 53.5083 33.1771C53.5083 36.7596 50.6041 39.6639 47.0215 39.6639ZM58.3321 34.6608C57.7223 33.7656 57.7223 32.5886 58.3321 31.6934C59.3028 30.2687 58.6667 28.3113 57.044 27.7293C56.0245 27.3635 55.3326 26.4113 55.2999 25.3286C55.2477 23.6056 53.5825 22.3957 51.9278 22.8787C50.888 23.1819 49.7684 22.8182 49.1056 21.9615C48.5781 21.28 47.7999 20.9391 47.0215 20.9391C46.2432 20.9391 45.465 21.28 44.9376 21.9615C44.2747 22.8182 43.1552 23.1819 42.1154 22.8787C40.4606 22.3957 38.7954 23.6056 38.7432 25.3286C38.7105 26.4113 38.0186 27.3635 36.9991 27.7293C35.3765 28.3113 34.7404 30.2687 35.7109 31.6934C36.3208 32.5886 36.3208 33.7656 35.7109 34.6608C34.7404 36.0853 35.3765 38.0428 36.9991 38.6249C38.0186 38.9905 38.7105 39.9429 38.7432 41.0256C38.7918 42.6313 40.2414 43.7913 41.7779 43.5509C41.8901 43.5334 42.0027 43.5085 42.1154 43.4755C43.1552 43.1721 44.2747 43.5359 44.9376 44.3925C45.9925 45.7559 48.0507 45.7559 49.1056 44.3925C49.7684 43.5359 50.888 43.1721 51.9278 43.4755C52.0404 43.5085 52.1531 43.5334 52.2652 43.5509C53.8018 43.7913 55.2514 42.6313 55.2999 41.0256C55.3326 39.9429 56.0245 38.9905 57.044 38.6249C58.6667 38.0428 59.3028 36.0853 58.3321 34.6608Z" stroke="#8FA5BA" stroke-width="2" stroke-miterlimit="10" stroke-linecap="round" stroke-linejoin="round"/>
</g>
<g id="g2295">
<path id="path2297" d="M47.0215 26.6902C43.4389 26.6902 40.5347 29.5945 40.5347 33.177C40.5347 36.7597 43.4389 39.6638 47.0215 39.6638C50.604 39.6638 53.5083 36.7597 53.5083 33.177C53.5083 29.5945 50.604 26.6902 47.0215 26.6902Z" stroke="#8FA5BA" stroke-width="2" stroke-miterlimit="10" stroke-linecap="round" stroke-linejoin="round"/>
</g>
<g id="g2299">
<path id="path2301" d="M12.2981 1.97256V10.6035C12.2981 11.7916 11.335 12.7545 10.1472 12.7545H1.51611" stroke="white" stroke-width="2" stroke-miterlimit="10" stroke-linecap="round" stroke-linejoin="round"/>
</g>
</g>
</g>
</g>
</g>
</g>
<rect x="-691.5" y="-2561.5" width="1439" height="5130" stroke="#E8E8E8"/>
</g>
<defs>
<clipPath id="clip0_322_977">
<rect x="-692" y="-2562" width="1440" height="5131" fill="white"/>
</clipPath>
</defs>
</svg>
